<svg xmlns="http://www.w3.org/2000/svg" width="235.308" height="211.877" viewBox="0 0 235.308 211.877">
  <g id="settings_2_" data-name="settings (2)" transform="translate(0.5 0.5)">
    <path id="路径_8979" data-name="路径 8979" d="M8,279.62a15.621,15.621,0,0,0,15.621,15.621H218.877A15.621,15.621,0,0,0,234.5,279.62V264H8Zm0,0" transform="translate(-4.095 -135.131)" fill="#e8f3ff" stroke="#fff" stroke-width="1"/>
    <path id="路径_8980" data-name="路径 8980" d="M192,359.241h46.862L234.956,328H195.905Zm0,0" transform="translate(-98.277 -167.89)" fill="#e8f3ff" stroke="#fff" stroke-width="1"/>
    <path id="路径_8981" data-name="路径 8981" d="M160,392v15.621h78.1V392Zm0,0" transform="translate(-81.897 -200.649)" fill="#e8f3ff" stroke="#fff" stroke-width="1"/>
    <path id="路径_8982" data-name="路径 8982" d="M119.1,82.047l9.086-9.088L117.143,61.917,108.056,71a27.226,27.226,0,0,0-5.194-2.139V56H87.241V68.863A27.226,27.226,0,0,0,82.047,71l-9.088-9.086L61.917,72.959,71,82.047a27.226,27.226,0,0,0-2.139,5.194H56v15.621H68.863A27.226,27.226,0,0,0,71,108.056l-9.086,9.088,11.042,11.042,9.088-9.086a27.225,27.225,0,0,0,5.194,2.139V134.1h15.621V121.239a27.225,27.225,0,0,0,5.194-2.139l9.088,9.086,11.042-11.042-9.086-9.088a27.225,27.225,0,0,0,2.139-5.194H134.1V87.241H121.239A27.225,27.225,0,0,0,119.1,82.047Zm-24.049,24.72a11.715,11.715,0,1,1,11.715-11.715A11.716,11.716,0,0,1,95.051,106.767Zm0,0" transform="translate(-28.664 -28.664)" fill="#e8f3ff" stroke="#fff" stroke-width="1"/>
    <g id="组_1270" data-name="组 1270">
      <path id="路径_8983" data-name="路径 8983" d="M214.782,0H19.526A19.549,19.549,0,0,0,0,19.526V144.49a19.549,19.549,0,0,0,19.526,19.526H93.2l-2.929,23.431H78.1a3.905,3.905,0,0,0-3.905,3.905v15.62a3.905,3.905,0,0,0,3.905,3.905h78.1a3.905,3.905,0,0,0,3.905-3.905v-15.62a3.905,3.905,0,0,0-3.905-3.905H144.032L141.1,164.015h73.679a19.549,19.549,0,0,0,19.526-19.526V19.526A19.549,19.549,0,0,0,214.782,0ZM19.526,7.81H214.782A11.716,11.716,0,0,1,226.5,19.526V124.964H7.81V19.526A11.716,11.716,0,0,1,19.526,7.81ZM152.3,203.067H82.008v-7.81H152.3Zm-16.139-15.621H98.147l2.929-23.431h32.156Zm78.621-31.241H19.526A11.716,11.716,0,0,1,7.81,144.49V132.774H226.5V144.49A11.716,11.716,0,0,1,214.782,156.205Zm0,0" fill="#272f6b" stroke="#fff" stroke-width="1"/>
      <path id="路径_8984" data-name="路径 8984" d="M417.133,289.109A4.088,4.088,0,0,0,416,291.882a3.9,3.9,0,1,0,1.133-2.772Zm0,0" transform="translate(-212.933 -147.392)" fill="#272f6b" stroke="#fff" stroke-width="1"/>
      <path id="路径_8985" data-name="路径 8985" d="M51.905,102.672H62l.2.481-7.133,7.135a3.9,3.9,0,0,0,0,5.52l11.044,11.044a3.9,3.9,0,0,0,5.52,0l7.135-7.133.481.2v10.091a3.905,3.905,0,0,0,3.905,3.905H98.767a3.905,3.905,0,0,0,3.905-3.905V119.917l.481-.2,7.135,7.133a3.9,3.9,0,0,0,5.52,0l11.044-11.044a3.9,3.9,0,0,0,0-5.52l-7.133-7.135.2-.481h10.091a3.905,3.905,0,0,0,3.905-3.905V83.146a3.905,3.905,0,0,0-3.905-3.905H119.917l-.2-.481,7.133-7.135a3.9,3.9,0,0,0,0-5.52L115.808,55.061a3.9,3.9,0,0,0-5.52,0l-7.135,7.133-.481-.2V51.905A3.905,3.905,0,0,0,98.767,48H83.146a3.905,3.905,0,0,0-3.905,3.905V62l-.481.2-7.135-7.133a3.9,3.9,0,0,0-5.52,0L55.061,66.105a3.9,3.9,0,0,0,0,5.52l7.133,7.135-.2.481H51.905A3.905,3.905,0,0,0,48,83.146V98.767A3.905,3.905,0,0,0,51.905,102.672ZM55.81,87.051h8.958a3.906,3.906,0,0,0,3.741-2.788,23.267,23.267,0,0,1,1.832-4.449,3.905,3.905,0,0,0-.673-4.624l-6.325-6.327,5.52-5.52,6.327,6.325a3.905,3.905,0,0,0,4.624.673,23.267,23.267,0,0,1,4.449-1.832,3.906,3.906,0,0,0,2.788-3.741V55.81h7.81v8.958a3.906,3.906,0,0,0,2.788,3.741,23.267,23.267,0,0,1,4.449,1.832,3.905,3.905,0,0,0,4.624-.673l6.327-6.325,5.52,5.52-6.325,6.327a3.905,3.905,0,0,0-.673,4.624,23.266,23.266,0,0,1,1.832,4.449,3.906,3.906,0,0,0,3.741,2.788H126.1v7.81h-8.958a3.906,3.906,0,0,0-3.741,2.788,23.266,23.266,0,0,1-1.832,4.449,3.905,3.905,0,0,0,.673,4.624l6.325,6.327-5.52,5.52-6.327-6.325a3.905,3.905,0,0,0-4.624-.673,23.266,23.266,0,0,1-4.449,1.832,3.906,3.906,0,0,0-2.788,3.741V126.1h-7.81v-8.958a3.906,3.906,0,0,0-2.788-3.741,23.266,23.266,0,0,1-4.449-1.832,3.905,3.905,0,0,0-4.624.673l-6.327,6.325-5.52-5.52,6.325-6.327a3.905,3.905,0,0,0,.673-4.624,23.267,23.267,0,0,1-1.832-4.449,3.906,3.906,0,0,0-3.741-2.788H55.81Zm0,0" transform="translate(-24.569 -24.569)" fill="#272f6b" stroke="#fff" stroke-width="1"/>
      <path id="路径_8986" data-name="路径 8986" d="M119.621,135.241A15.621,15.621,0,1,0,104,119.621,15.621,15.621,0,0,0,119.621,135.241Zm0-23.431a7.81,7.81,0,1,1-7.81,7.81A7.811,7.811,0,0,1,119.621,111.81Zm0,0" transform="translate(-53.233 -53.233)" fill="#272f6b" stroke="#fff" stroke-width="1"/>
      <g id="组_1271" data-name="组 1271">
        <path id="路径_8988" data-name="路径 8988" d="M328,40h7.81v7.81H328Zm0,0" transform="translate(-199 -0.475)" fill="#272f6b" stroke="#fff" stroke-width="1"/>
        <path id="路径_8989" data-name="路径 8989" d="M360,40h58.075v7.81H360Zm0,0" transform="translate(-214 -0.475)" fill="#272f6b" stroke="#fff" stroke-width="1"/>
        <path id="路径_8990" data-name="路径 8990" d="M328,72h74.5v7.81H328Zm0,0" transform="translate(-199 -16.854)" fill="#272f6b" stroke="#fff" stroke-width="1"/>
        <path id="路径_8992" data-name="路径 8992" d="M328,168h74.786v7.81H328Zm0,0" transform="translate(-199 -95.992)" fill="#272f6b" stroke="#fff" stroke-width="1"/>
        <path id="路径_8993" data-name="路径 8993" d="M328,200h7.81v7.81H328Zm0,0" transform="translate(-199 -112.372)" fill="#272f6b" stroke="#fff" stroke-width="1"/>
        <path id="路径_8994" data-name="路径 8994" d="M360,200h39.526v7.81H360Zm0,0" transform="translate(-214 -112.372)" fill="#272f6b" stroke="#fff" stroke-width="1"/>
        <path id="路径_8995" data-name="路径 8995" d="M328,200h7.81v7.81H328Zm0,0" transform="translate(-133 -112.372)" fill="#272f6b" stroke="#fff" stroke-width="1"/>
      </g>
    </g>
  </g>
</svg>
