<svg xmlns="http://www.w3.org/2000/svg" width="64.006" height="71.903" viewBox="0 0 64.006 71.903">
  <g id="atom_1_" data-name="atom (1)" transform="translate(-25.694 0.5)">
    <path id="路径_8958" data-name="路径 8958" d="M83.787,39.255a52.186,52.186,0,0,0-3.668-3.8,52.189,52.189,0,0,0,3.668-3.8,25.393,25.393,0,0,0,4.7-7.333c.974-2.585.945-4.8-.087-6.589s-2.937-2.921-5.663-3.37a25.392,25.392,0,0,0-8.7.4,52.2,52.2,0,0,0-5.128,1.275c-.388-1.639-.827-3.195-1.315-4.65a3.963,3.963,0,0,0-3.157-6.812,16.152,16.152,0,0,0-.989-1.353C61.695,1.083,59.761,0,57.7,0s-4,1.083-5.75,3.219a25.4,25.4,0,0,0-4,7.737,52.2,52.2,0,0,0-1.46,5.078,52.154,52.154,0,0,0-5.128-1.275,25.393,25.393,0,0,0-8.7-.4c-2.726.449-4.631,1.583-5.663,3.37s-1.061,4-.087,6.589a25.393,25.393,0,0,0,4.7,7.333,52.191,52.191,0,0,0,3.668,3.8q-1.211,1.141-2.292,2.284a3.964,3.964,0,0,0-4.571,5.828,18.3,18.3,0,0,0-1.5,3.025c-.974,2.585-.945,4.8.087,6.589s2.937,2.921,5.663,3.37a17.62,17.62,0,0,0,2.856.216,31.3,31.3,0,0,0,5.845-.619,52.2,52.2,0,0,0,5.128-1.275,52.186,52.186,0,0,0,1.46,5.078,25.4,25.4,0,0,0,4,7.737C53.7,69.82,55.634,70.9,57.7,70.9s4-1.083,5.75-3.219a25.4,25.4,0,0,0,4-7.737,52.188,52.188,0,0,0,1.46-5.078c1.561.468,3.079.856,4.538,1.157a3.964,3.964,0,0,0,7.491.707,16.351,16.351,0,0,0,1.8-.186c2.726-.449,4.631-1.583,5.663-3.37s1.061-4,.087-6.589A25.39,25.39,0,0,0,83.787,39.255ZM74.6,17.723c5.811-1.116,9.99-.551,11.181,1.512S85.376,25.2,81.5,29.673a49.676,49.676,0,0,1-3.636,3.754A82.67,82.67,0,0,0,70.7,27.947,82.692,82.692,0,0,0,69.535,19,49.667,49.667,0,0,1,74.6,17.723ZM62.83,44.341c-1.71.987-3.426,1.91-5.132,2.762-1.706-.852-3.422-1.774-5.132-2.762s-3.367-2.012-4.958-3.064c-.115-1.9-.174-3.851-.174-5.826s.059-3.922.174-5.826q2.386-1.577,4.958-3.064c1.71-.987,3.426-1.91,5.132-2.762,1.706.852,3.422,1.774,5.132,2.762s3.367,2.012,4.958,3.064c.115,1.9.174,3.851.174,5.826s-.059,3.922-.174,5.826Q65.4,42.854,62.83,44.341Zm4.648.724c-.211,2.038-.49,4.007-.833,5.886-1.8-.642-3.643-1.386-5.513-2.222q1.6-.85,3.207-1.774T67.478,45.064ZM54.263,48.728c-1.87.836-3.715,1.579-5.513,2.222-.343-1.878-.622-3.848-.833-5.886q1.538.964,3.139,1.89T54.263,48.728Zm-9.781-9.613c-1.659-1.2-3.225-2.428-4.681-3.664,1.455-1.236,3.021-2.462,4.681-3.664q-.066,1.814-.067,3.664T44.482,39.115Zm3.435-13.277c.211-2.038.49-4.007.833-5.886,1.8.642,3.643,1.386,5.513,2.222q-1.6.85-3.207,1.774T47.917,25.839Zm13.215-3.664c1.87-.836,3.715-1.579,5.513-2.222.343,1.878.622,3.848.833,5.886q-1.538-.964-3.139-1.89T61.132,22.175Zm9.781,9.613c1.659,1.2,3.225,2.428,4.681,3.664-1.455,1.236-3.021,2.462-4.681,3.664q.066-1.814.067-3.664T70.913,31.788ZM50.8,11.945c1.939-5.59,4.518-8.927,6.9-8.927,1.347,0,2.757,1.069,4.079,3.008a3.962,3.962,0,0,0,3,6.452c.466,1.4.884,2.907,1.253,4.493a82.708,82.708,0,0,0-8.333,3.47,82.711,82.711,0,0,0-8.333-3.47A49.708,49.708,0,0,1,50.8,11.945ZM33.89,29.673C30.019,25.2,28.418,21.3,29.609,19.235c.788-1.365,2.885-2.074,5.9-2.074a28.439,28.439,0,0,1,5.282.562A49.705,49.705,0,0,1,45.86,19,82.694,82.694,0,0,0,44.7,27.947a82.7,82.7,0,0,0-7.172,5.481A49.674,49.674,0,0,1,33.89,29.673Zm6.9,23.506c-5.81,1.116-9.99.551-11.181-1.512-.8-1.391-.334-3.62,1.243-6.3a3.964,3.964,0,0,0,4.462-5.706q1.041-1.093,2.213-2.19A82.727,82.727,0,0,0,44.7,42.956a82.689,82.689,0,0,0,1.161,8.951A49.619,49.619,0,0,1,40.79,53.18ZM64.6,58.958c-1.939,5.59-4.518,8.927-6.9,8.927s-4.96-3.337-6.9-8.927a49.7,49.7,0,0,1-1.433-5.027,82.713,82.713,0,0,0,8.333-3.47,82.713,82.713,0,0,0,8.333,3.47A49.7,49.7,0,0,1,64.6,58.958Zm21.189-7.29c-.686,1.188-2.367,1.879-4.778,2.037a3.963,3.963,0,0,0-7.067-.66c-1.414-.3-2.887-.676-4.4-1.138A82.7,82.7,0,0,0,70.7,42.956a82.641,82.641,0,0,0,7.171-5.481A49.677,49.677,0,0,1,81.5,41.23C85.376,45.7,86.976,49.606,85.786,51.668Z" transform="translate(0 0)" fill="#ffc851" stroke="#ffc851" stroke-width="1"/>
    <path id="路径_8959" data-name="路径 8959" d="M199.7,193.433a6.262,6.262,0,1,0,6.262,6.262A6.269,6.269,0,0,0,199.7,193.433Zm0,9.506a3.244,3.244,0,1,1,3.244-3.244A3.248,3.248,0,0,1,199.7,202.939Z" transform="translate(-141.998 -164.244)" fill="#ffc851" stroke="#ffc851" stroke-width="1"/>
  </g>
</svg>
