<svg xmlns="http://www.w3.org/2000/svg" width="42.825" height="34.808" viewBox="0 0 42.825 34.808">
  <g id="icon" transform="translate(0 4.586) rotate(-9)">
    <path id="路径_5709" data-name="路径 5709" d="M28.512.065A1.164,1.164,0,0,0,27.19.479c-.044.059-4.481,5.911-11.7,5.911H6.163A6.272,6.272,0,0,0,0,12.752a6.272,6.272,0,0,0,6.163,6.363h.195v7.521A3.9,3.9,0,0,0,10.194,30.6a3.9,3.9,0,0,0,3.836-3.961V19.116h1.458a14.309,14.309,0,0,1,8.529,2.921,16.376,16.376,0,0,1,3.173,2.989,1.173,1.173,0,0,0,.94.478,1.149,1.149,0,0,0,.381-.065,1.222,1.222,0,0,0,.8-1.159V1.224A1.222,1.222,0,0,0,28.512.065ZM2.371,12.752A3.859,3.859,0,0,1,6.163,8.838H14.3v7.83H6.163A3.859,3.859,0,0,1,2.371,12.752Zm9.288,13.885a1.466,1.466,0,1,1-2.931,0V19.116h2.931ZM26.945,21.3c-.434-.387-.932-.8-1.49-1.208a17.065,17.065,0,0,0-8.781-3.375V8.792a17.068,17.068,0,0,0,8.781-3.375c.558-.41,1.056-.821,1.49-1.208Zm0,0" transform="translate(0 0)" fill="#272f6b"/>
    <path id="路径_5710" data-name="路径 5710" d="M4.4,0H1.332a1.332,1.332,0,0,0,0,2.663H4.4A1.332,1.332,0,0,0,4.4,0Zm0,0" transform="translate(35.397 11.44)" fill="#272f6b"/>
    <path id="路径_5711" data-name="路径 5711" d="M1.332,4.83a1.328,1.328,0,0,0,.942-.39L4.44,2.273A1.332,1.332,0,0,0,2.557.39L.39,2.557A1.332,1.332,0,0,0,1.332,4.83Zm0,0" transform="translate(32.555 5.419)" fill="#272f6b"/>
    <path id="路径_5712" data-name="路径 5712" d="M2.273.39A1.332,1.332,0,0,0,.39,2.273L2.557,4.44A1.332,1.332,0,0,0,4.44,2.557Zm0,0" transform="translate(32.555 15.332)" fill="#272f6b"/>
    <path id="路径_5713" data-name="路径 5713" d="M1.333,0A1.347,1.347,0,0,0,0,1.331,1.355,1.355,0,0,0,1.333,2.663,1.347,1.347,0,0,0,2.664,1.331,1.355,1.355,0,0,0,1.333,0Zm0,0" transform="translate(5.854 11.44)" fill="#272f6b"/>
  </g>
</svg>
