<svg xmlns="http://www.w3.org/2000/svg" width="68" height="53.027" viewBox="0 0 68 53.027">
  <g id="photo-camera_1_" data-name="photo-camera (1)" transform="translate(10)">
    <g id="组_1267" data-name="组 1267" transform="translate(-10 0)">
      <g id="组_1266" data-name="组 1266">
        <path id="路径_8960" data-name="路径 8960" d="M-10,90.308v-29.5a7.907,7.907,0,0,1,8.157-7.618H10.369l.134-.525A10.1,10.1,0,0,1,20.509,45.25h9.3A10.1,10.1,0,0,1,39.81,52.668l.134.525h9.9A7.907,7.907,0,0,1,58,60.812v29.5c0,4.391-3.831,7.969-8.532,7.969H-1.441A8.269,8.269,0,0,1-10,90.308Zm4.594,0a3.821,3.821,0,0,0,3.938,3.678H49.454a3.821,3.821,0,0,0,3.938-3.678v-29.5a3.458,3.458,0,0,0-3.563-3.328H38.109a2.265,2.265,0,0,1-2.237-1.664l-.549-2.177a5.594,5.594,0,0,0-5.532-4.1H20.5a5.594,5.594,0,0,0-5.532,4.1l-.549,2.177a2.265,2.265,0,0,1-2.237,1.664H-1.856a3.458,3.458,0,0,0-3.563,3.328v29.5Z" transform="translate(10 -45.25)" fill="#5ec1f5"/>
        <path id="路径_8961" data-name="路径 8961" d="M152.46,171.55a13.26,13.26,0,1,1-13.26,13.26A13.275,13.275,0,0,1,152.46,171.55Zm0,22.217a8.969,8.969,0,1,0-8.969-8.969A8.977,8.977,0,0,0,152.46,193.767Z" transform="translate(-117.249 -155.75)" fill="#5ec1f5"/>
        <path id="路径_8962" data-name="路径 8962" d="M65.852,171.55h.075a2.145,2.145,0,0,1,0,4.291h-.075a2.145,2.145,0,1,1,0-4.291Z" transform="translate(-8.035 -155.75)" fill="#5ec1f5"/>
      </g>
    </g>
  </g>
</svg>
