<svg xmlns="http://www.w3.org/2000/svg" width="14.461" height="14" viewBox="0 0 14.461 14">
  <g id="casa-silueta-negra-sin-puerta" transform="translate(0 -4.89)">
    <path id="路径_8957" data-name="路径 8957" d="M14.28,11.721a.69.69,0,0,0-.057-.987L7.76,5.079a.806.806,0,0,0-1.051.012L.225,11.036a.686.686,0,0,0-.031.985l.163.169a.709.709,0,0,0,.973.075l.485-.434v6.354a.705.705,0,0,0,.705.705H5.047a.705.705,0,0,0,.705-.705V13.74H8.977v4.445a.667.667,0,0,0,.663.705h2.679a.705.705,0,0,0,.705-.705V11.92l.3.262c.165.145.511.029.773-.26Z" transform="translate(0)" fill="#999"/>
  </g>
</svg>
