<svg xmlns="http://www.w3.org/2000/svg" width="70.574" height="70.574" viewBox="0 0 70.574 70.574">
  <path id="goal_1_" data-name="goal (1)" d="M69.947,65.149,45.514,30.331a3.435,3.435,0,0,0-.753-.776v-7.5h17.23a2.068,2.068,0,0,0,1.756-3.16l-3.609-5.8,3.609-5.8a2.068,2.068,0,0,0-1.756-3.16H44.761V2.068a2.068,2.068,0,0,0-4.135,0V29.556a3.439,3.439,0,0,0-.753.776l-11.5,16.388L23.939,40.57a3.446,3.446,0,0,0-5.591,0L.653,65.113a3.446,3.446,0,0,0,2.8,5.461H67.126a3.446,3.446,0,0,0,2.821-5.425Zm-50.36,1.29,13.3-18.953,3.408,3.175a2.068,2.068,0,0,0,2.819,0l3.579-3.335,3.58,3.335a2.068,2.068,0,0,0,2.819,0L52.5,47.486,65.8,66.439Zm-4.146-1.29a3.45,3.45,0,0,0-.557,1.29H4.795L21.144,43.764,25.858,50.3ZM42.693,33.511,50.1,44.068l-2.42,2.254L44.1,42.987a2.068,2.068,0,0,0-2.819,0L37.7,46.322l-2.419-2.254ZM58.269,8.27,55.947,12a2.068,2.068,0,0,0,0,2.185l2.322,3.732H44.761V8.27Z" transform="translate(0)" fill="#ff8697"/>
</svg>
