<svg xmlns="http://www.w3.org/2000/svg" width="75.712" height="75.712" viewBox="0 0 75.712 75.712">
  <path id="telescope" d="M.3,25.8,14.553,1.109A2.219,2.219,0,0,1,17.583.3l8.23,4.752a2.218,2.218,0,0,1,.812,3.03l-.175.3L67.73,37.49a2.218,2.218,0,0,1,.643,2.922l-.079.137L74.6,44.191a2.218,2.218,0,0,1,.812,3.03l-4.752,8.231a2.218,2.218,0,0,1-3.03.812l-6.309-3.642-.079.136a2.218,2.218,0,0,1-2.852.9l-12.75-5.9a9.426,9.426,0,0,1-2.27,2.377l8.44,22.572a2.218,2.218,0,1,1-4.155,1.554L39.273,51.845a9.371,9.371,0,0,1-2.834,0L28.055,74.27A2.218,2.218,0,1,1,23.9,72.716l8.44-22.571a9.326,9.326,0,0,1-3.461-10.128l-16.334-7.55-.175.3a2.218,2.218,0,0,1-3.03.812L1.11,28.83A2.218,2.218,0,0,1,.3,25.8ZM67.93,51.313l2.534-4.389L66.076,44.39l-2.534,4.389Zm-30.074-3.8a4.909,4.909,0,1,0-4.909-4.909A4.915,4.915,0,0,0,37.857,47.517ZM31.1,36.158a9.339,9.339,0,0,1,16.1,6.45,9.416,9.416,0,0,1-.05.969l11.265,5.208,5.1-8.837L24.223,12.24,14.772,28.609ZM9.638,28.631,21.675,7.782,17.286,5.248,5.249,26.1Z" transform="translate(0 0)" fill="#a6d241"/>
</svg>
