<svg id="calendario_1_" data-name="calendario (1)" xmlns="http://www.w3.org/2000/svg" width="18.23" height="18.23" viewBox="0 0 18.23 18.23">
  <g id="组_948" data-name="组 948">
    <g id="组_947" data-name="组 947">
      <path id="路径_8954" data-name="路径 8954" d="M16.514,8.483v-6.8a.534.534,0,0,0-.534-.534H13.368V.534a.534.534,0,0,0-1.068,0v.61H8.791V.534a.534.534,0,0,0-1.068,0v.61H4.215V.534a.534.534,0,0,0-1.068,0v.61H.534A.534.534,0,0,0,0,1.678v14.3a.534.534,0,0,0,.534.534H8.483a5.68,5.68,0,1,0,8.032-8.032ZM1.068,2.212H15.446V4.577H1.068Zm0,13.234v-9.8H15.446V7.661a5.68,5.68,0,0,0-7.785,7.785H1.068Zm11.479,1.716a4.615,4.615,0,1,1,4.615-4.615A4.62,4.62,0,0,1,12.548,17.162Z" fill="#999"/>
    </g>
  </g>
  <g id="组_950" data-name="组 950" transform="translate(11.339 10.668)">
    <g id="组_949" data-name="组 949">
      <path id="路径_8955" data-name="路径 8955" d="M340.2,291.332h-1.469v-1.469a.664.664,0,1,0-1.327,0V292a.664.664,0,0,0,.664.664H340.2a.664.664,0,0,0,0-1.327Z" transform="translate(-337.4 -289.2)" fill="#999"/>
    </g>
  </g>
</svg>
