<svg xmlns="http://www.w3.org/2000/svg" width="14.837" height="16.073" viewBox="0 0 14.837 16.073">
  <g id="user-images" transform="translate(-5.218 -0.102)">
    <path id="路径_8930" data-name="路径 8930" d="M11.709,9.418a3.709,3.709,0,1,1,3.709-3.709A3.713,3.713,0,0,1,11.709,9.418Zm0-6.027a2.318,2.318,0,1,0,2.318,2.318A2.32,2.32,0,0,0,11.709,3.391Z" transform="translate(0.927 -1.898)" fill="#999"/>
    <path id="路径_8931" data-name="路径 8931" d="M18.141,19.418a.7.7,0,0,1-.7-.7V16.4a3.017,3.017,0,0,0-3.014-3.014H8.4A3.017,3.017,0,0,0,5.391,16.4v2.318a.7.7,0,0,1-1.391,0V16.4A4.41,4.41,0,0,1,8.4,12h6.027a4.41,4.41,0,0,1,4.4,4.4v2.318A.7.7,0,0,1,18.141,19.418Z" transform="translate(1.218 -3.244)" fill="#999"/>
  </g>
</svg>
