<svg xmlns="http://www.w3.org/2000/svg" width="227.973" height="256.302" viewBox="0 0 227.973 256.302">
  <g id="atom_1_" data-name="atom (1)" transform="translate(-25.184 1)">
    <path id="路径_8958" data-name="路径 8958" d="M232.742,140.792a187.174,187.174,0,0,0-13.156-13.641,187.185,187.185,0,0,0,13.156-13.641c8.163-9.433,13.834-18.282,16.855-26.3,3.494-9.273,3.389-17.224-.311-23.633S238.753,53.1,228.976,51.49c-8.457-1.393-18.956-.907-31.206,1.446a187.211,187.211,0,0,0-18.391,4.572c-1.39-5.879-2.965-11.458-4.716-16.678A14.214,14.214,0,0,0,163.34,16.4a57.926,57.926,0,0,0-3.548-4.852C153.508,3.885,146.57,0,139.17,0s-14.338,3.885-20.621,11.547C113.114,18.174,108.286,27.51,104.2,39.3a187.211,187.211,0,0,0-5.236,18.213,187.055,187.055,0,0,0-18.391-4.572C68.32,50.583,57.821,50.1,49.365,51.49,39.588,53.1,32.754,57.167,29.055,63.575s-3.8,14.36-.311,23.633c3.022,8.02,8.693,16.869,16.855,26.3a187.19,187.19,0,0,0,13.156,13.641q-4.345,4.094-8.221,8.191a14.218,14.218,0,0,0-16.394,20.9,65.635,65.635,0,0,0-5.4,10.85c-3.494,9.273-3.389,17.223.311,23.632S39.588,201.2,49.365,202.811a63.194,63.194,0,0,0,10.243.775,112.276,112.276,0,0,0,20.963-2.221,187.211,187.211,0,0,0,18.391-4.572,187.166,187.166,0,0,0,5.236,18.214c4.088,11.785,8.916,21.121,14.351,27.748,6.284,7.662,13.222,11.547,20.622,11.547s14.338-3.885,20.622-11.547c5.434-6.627,10.263-15.963,14.351-27.748a187.179,187.179,0,0,0,5.236-18.214c5.6,1.679,11.042,3.071,16.276,4.15a14.218,14.218,0,0,0,26.868,2.535,58.655,58.655,0,0,0,6.453-.667c9.777-1.611,16.611-5.677,20.311-12.086s3.8-14.359.311-23.632C246.575,159.074,240.9,150.225,232.742,140.792ZM199.811,63.566c20.841-4,35.831-1.975,40.1,5.421s-1.47,21.392-15.356,37.439a178.168,178.168,0,0,1-13.042,13.466,296.5,296.5,0,0,0-25.722-19.659,296.583,296.583,0,0,0-4.164-32.1A178.141,178.141,0,0,1,199.811,63.566Zm-42.233,95.467c-6.134,3.541-12.289,6.85-18.407,9.905-6.119-3.056-12.273-6.364-18.407-9.905s-12.076-7.217-17.782-10.989c-.413-6.827-.625-13.811-.625-20.894s.212-14.067.625-20.894q8.558-5.657,17.782-10.988c6.134-3.541,12.289-6.85,18.407-9.906,6.119,3.056,12.273,6.364,18.407,9.906s12.076,7.217,17.782,10.988c.413,6.827.625,13.811.625,20.894s-.212,14.067-.625,20.894Q166.8,153.7,157.578,159.033Zm16.672,2.6c-.757,7.309-1.757,14.372-2.986,21.109-6.449-2.3-13.066-4.97-19.774-7.968q5.753-3.048,11.5-6.362T174.249,161.628Zm-47.4,13.141c-6.708,3-13.325,5.664-19.774,7.968-1.229-6.737-2.229-13.8-2.986-21.109q5.516,3.459,11.26,6.779T126.852,174.769ZM91.772,140.291c-5.951-4.31-11.568-8.708-16.788-13.141,5.22-4.433,10.837-8.831,16.788-13.141q-.238,6.507-.241,13.141T91.772,140.291Zm12.319-47.618c.757-7.309,1.757-14.372,2.986-21.109,6.449,2.3,13.066,4.97,19.774,7.968q-5.754,3.048-11.5,6.362T104.091,92.673Zm47.4-13.141c6.708-3,13.325-5.664,19.774-7.968,1.229,6.737,2.229,13.8,2.986,21.109q-5.516-3.459-11.26-6.779T151.489,79.532Zm35.079,34.478c5.951,4.31,11.568,8.708,16.788,13.141-5.22,4.433-10.837,8.831-16.788,13.141q.238-6.507.241-13.141T186.568,114.01ZM114.425,42.842c6.954-20.049,16.2-32.018,24.745-32.018,4.831,0,9.889,3.832,14.63,10.788a14.209,14.209,0,0,0,10.762,23.142c1.671,5.035,3.172,10.426,4.493,16.116A296.644,296.644,0,0,0,139.17,73.316,296.651,296.651,0,0,0,109.284,60.87,178.282,178.282,0,0,1,114.425,42.842Zm-60.64,63.585C39.9,90.38,34.158,76.384,38.429,68.988c2.826-4.9,10.348-7.439,21.155-7.439A102,102,0,0,1,78.53,63.566a178.276,178.276,0,0,1,18.183,4.562,296.6,296.6,0,0,0-4.164,32.1,296.6,296.6,0,0,0-25.722,19.659A178.164,178.164,0,0,1,53.784,106.427ZM78.53,190.735c-20.839,4-35.831,1.975-40.1-5.421-2.881-4.99-1.2-12.985,4.458-22.585a14.217,14.217,0,0,0,16-20.467q3.733-3.92,7.937-7.854a296.7,296.7,0,0,0,25.721,19.659,296.576,296.576,0,0,0,4.164,32.1A177.961,177.961,0,0,1,78.53,190.735Zm85.386,20.724c-6.954,20.049-16.2,32.018-24.745,32.018s-17.791-11.969-24.745-32.018a178.238,178.238,0,0,1-5.141-18.028,296.655,296.655,0,0,0,29.886-12.446,296.656,296.656,0,0,0,29.886,12.446A178.238,178.238,0,0,1,163.916,211.459Zm76-26.145c-2.461,4.263-8.488,6.738-17.138,7.308a14.214,14.214,0,0,0-25.347-2.366c-5.073-1.059-10.356-2.426-15.8-4.083a296.593,296.593,0,0,0,4.164-32.1,296.4,296.4,0,0,0,25.721-19.659,178.166,178.166,0,0,1,13.042,13.466C238.442,163.922,244.182,177.917,239.912,185.314Z" transform="translate(0 0)" fill="#f8f6e7" stroke="#f8f6e7" stroke-width="2"/>
    <path id="路径_8959" data-name="路径 8959" d="M215.893,193.433a22.46,22.46,0,1,0,22.46,22.46A22.485,22.485,0,0,0,215.893,193.433Zm0,34.1a11.636,11.636,0,1,1,11.636-11.636A11.649,11.649,0,0,1,215.893,227.529Z" transform="translate(-76.723 -88.742)" fill="#f8f6e7" stroke="#f8f6e7" stroke-width="2"/>
  </g>
</svg>
