<svg xmlns="http://www.w3.org/2000/svg" width="625.938" height="94.244" viewBox="0 0 625.938 94.244">
  <g id="组_717" data-name="组 717" transform="translate(0 0)">
    <g id="组_713" data-name="组 713" transform="translate(0 32.916)">
      <g id="组_712" data-name="组 712">
        <g id="组_711" data-name="组 711">
          <path id="路径_7544" data-name="路径 7544" d="M565.463,502.852H555.385a6.821,6.821,0,0,1-5.275-2.458,7.471,7.471,0,0,1-1.8-4.9V483.94a9.447,9.447,0,0,1,.706-3.612,9.59,9.59,0,0,1,1.878-2.932c.226-.241.464-.469.711-.685l-1.386-.716a4.507,4.507,0,0,1-2.268-5.216,22.21,22.21,0,0,1,1.978-4.832,17.871,17.871,0,0,1,3.2-4.177,14.782,14.782,0,0,1,4.6-3.01,16.244,16.244,0,0,1,11.764.018,15.58,15.58,0,0,1,5.126,3.26,15.361,15.361,0,0,1,3.536,5.234,18.7,18.7,0,0,1,.114,13.218,14.118,14.118,0,0,1-3.142,4.773,14.72,14.72,0,0,1-1.519,1.3l5,2.589a4.505,4.505,0,0,1,1.885,6.16,14.194,14.194,0,0,1-3.179,4.031,13.32,13.32,0,0,1-3.921,2.349,16.23,16.23,0,0,1-4.1.968A35.928,35.928,0,0,1,565.463,502.852Zm-1.8-29.287a1.439,1.439,0,0,0-.15.173c-.066.086-.13.177-.191.272a3.169,3.169,0,0,0,.656-.274l-.013-.015a.912.912,0,0,0-.249-.138Zm.319.428Z" transform="translate(-547.782 -454.589)" fill="#272f6b"/>
          <path id="路径_7545" data-name="路径 7545" d="M586.456,502.865a16.548,16.548,0,0,1-6.148-1.185,13.858,13.858,0,0,1-5.7-4.331,20.267,20.267,0,0,1-3.484-7.125,35.935,35.935,0,0,1-1.17-9.9,36.482,36.482,0,0,1,1.167-9.975,20.64,20.64,0,0,1,3.468-7.167,14.026,14.026,0,0,1,5.67-4.39,16.492,16.492,0,0,1,12.383-.039,13.937,13.937,0,0,1,5.654,4.322,20.321,20.321,0,0,1,3.485,7.128,35.941,35.941,0,0,1,1.169,9.9,36.467,36.467,0,0,1-1.167,9.975,20.634,20.634,0,0,1-3.469,7.167,14.059,14.059,0,0,1-5.626,4.384A16.194,16.194,0,0,1,586.456,502.865Zm.016-28.462c-.094.318-.192.717-.286,1.214a26.139,26.139,0,0,0-.34,4.708,23.592,23.592,0,0,0,.329,4.457c.089.429.178.772.262,1.04a11.315,11.315,0,0,0,.294-1.181,24.382,24.382,0,0,0,.337-4.54,25.289,25.289,0,0,0-.34-4.613C586.642,475.052,586.554,474.694,586.472,474.4Z" transform="translate(-544.975 -454.602)" fill="#272f6b"/>
          <path id="路径_7546" data-name="路径 7546" d="M611.489,502.852H601.413a6.822,6.822,0,0,1-5.276-2.458,7.471,7.471,0,0,1-1.8-4.9V483.94a9.448,9.448,0,0,1,.706-3.612,9.614,9.614,0,0,1,1.878-2.932c.226-.241.464-.469.711-.685l-1.384-.716a4.506,4.506,0,0,1-2.269-5.216,22.28,22.28,0,0,1,1.979-4.832,17.814,17.814,0,0,1,3.2-4.177,14.755,14.755,0,0,1,4.6-3.01,16.241,16.241,0,0,1,11.763.018,15.578,15.578,0,0,1,5.126,3.26,15.361,15.361,0,0,1,3.537,5.234,18.7,18.7,0,0,1,.113,13.218,14.106,14.106,0,0,1-3.142,4.773,14.74,14.74,0,0,1-1.519,1.3l5,2.589a4.507,4.507,0,0,1,1.886,6.16,14.188,14.188,0,0,1-3.18,4.031,13.317,13.317,0,0,1-3.921,2.349,16.214,16.214,0,0,1-4.1.968A35.909,35.909,0,0,1,611.489,502.852Zm-1.8-29.287a1.443,1.443,0,0,0-.15.173c-.065.086-.13.177-.192.272a3.174,3.174,0,0,0,.656-.274l-.012-.015a.9.9,0,0,0-.25-.138Z" transform="translate(-541.956 -454.589)" fill="#272f6b"/>
          <path id="路径_7547" data-name="路径 7547" d="M632.482,502.865a16.545,16.545,0,0,1-6.147-1.185,13.856,13.856,0,0,1-5.7-4.331,20.306,20.306,0,0,1-3.484-7.125,35.95,35.95,0,0,1-1.169-9.9,36.488,36.488,0,0,1,1.167-9.975,20.625,20.625,0,0,1,3.469-7.167,14.021,14.021,0,0,1,5.67-4.39,16.489,16.489,0,0,1,12.383-.039,13.942,13.942,0,0,1,5.655,4.322,20.319,20.319,0,0,1,3.483,7.128,35.886,35.886,0,0,1,1.17,9.9,36.453,36.453,0,0,1-1.167,9.975,20.589,20.589,0,0,1-3.469,7.167,14.057,14.057,0,0,1-5.626,4.384A16.19,16.19,0,0,1,632.482,502.865ZM632.5,474.4c-.094.318-.191.717-.286,1.214a26.028,26.028,0,0,0-.341,4.708,23.552,23.552,0,0,0,.33,4.457c.088.429.177.772.26,1.04a11.241,11.241,0,0,0,.294-1.181,24.424,24.424,0,0,0,.337-4.54,25.31,25.31,0,0,0-.34-4.613C632.668,475.052,632.581,474.694,632.5,474.4Z" transform="translate(-539.148 -454.602)" fill="#272f6b"/>
          <path id="路径_7548" data-name="路径 7548" d="M681.332,513.21H665.166a8.393,8.393,0,0,1-3.26-.656,8.689,8.689,0,0,1-5.339-8.095V493.893a15.612,15.612,0,0,1-2.6-1.278,21.085,21.085,0,0,1-5.836-5.314,4.508,4.508,0,0,1,1.529-6.723l5.3-2.735a4.51,4.51,0,0,1,5.472,1.052,2.864,2.864,0,0,0,.783.71,2.472,2.472,0,0,0,.521.127,15.923,15.923,0,0,1-2.34-8.66,16.327,16.327,0,0,1,1.143-6.158,14.573,14.573,0,0,1,3.272-4.954,14.427,14.427,0,0,1,5.09-3.212,18.39,18.39,0,0,1,12.361,0,14.2,14.2,0,0,1,8.363,8.167,16.345,16.345,0,0,1,1.143,6.158,15.774,15.774,0,0,1-2.405,8.725h6.3a4.506,4.506,0,0,1,4.506,4.506v6.086a4.506,4.506,0,0,1-4.506,4.506H672.454v2.768h8.353a2.875,2.875,0,0,0,1.157-.2,2.844,2.844,0,0,0,.911-.673,4.508,4.508,0,0,1,5.356-.916l5.931,3.071a4.506,4.506,0,0,1,1.512,6.732,20.434,20.434,0,0,1-2.624,2.831,19.549,19.549,0,0,1-3.282,2.367,18.788,18.788,0,0,1-3.88,1.661A15.769,15.769,0,0,1,681.332,513.21ZM678.5,481.624h0Zm-3.711-9.938h0Zm-.064-.1c.04,0,.091.006.154.006a1.037,1.037,0,0,0,.309-.032.93.93,0,0,0,.066-.431,1.159,1.159,0,0,0-.112-.569,2.613,2.613,0,0,0-.378.006,1.175,1.175,0,0,0-.1.563A1.2,1.2,0,0,0,674.722,471.585Zm-.118-.018Z" transform="translate(-535.194 -454.841)" fill="#272f6b"/>
          <path id="路径_7549" data-name="路径 7549" d="M725.776,505a4.5,4.5,0,0,1-2.073-.506l-6.035-3.126a4.5,4.5,0,0,1-2.393-4.6q.047-.359.107-.865H698.276a8.123,8.123,0,0,1-3.393-.741,9.139,9.139,0,0,1-2.581-1.761,8.7,8.7,0,0,1-2.626-6.247V474.191a4.48,4.48,0,0,1,.677-2.376,4.477,4.477,0,0,1-.783-2.538v-6.2a4.507,4.507,0,0,1,4.506-4.506h21.152a4.512,4.512,0,0,0,4.933-1.953h6.874a4.507,4.507,0,0,1,4.506,4.506v7.665h2.212a4.507,4.507,0,0,1,4.506,4.507v6.086a4.507,4.507,0,0,1-4.506,4.506h-2.212v9.369a27.181,27.181,0,0,1-.155,2.81c-.1.984-.257,1.986-.457,2.986a14.612,14.612,0,0,1-1.077,3.355A4.506,4.506,0,0,1,725.776,505Z" transform="translate(-529.833 -454.722)" fill="#272f6b"/>
          <path id="路径_7550" data-name="路径 7550" d="M759.649,512.589H744.535a8.416,8.416,0,0,1-3.262-.657,8.695,8.695,0,0,1-5.339-8.093v-14.18a4.48,4.48,0,0,1,.472-2.011,14.6,14.6,0,0,1-4.052-3.027,15.835,15.835,0,0,1-3.271-5.329,19.287,19.287,0,0,1,0-13,15.849,15.849,0,0,1,3.269-5.324,15.064,15.064,0,0,1,5.111-3.544,16.887,16.887,0,0,1,12.768,0,14.882,14.882,0,0,1,7.429,6.785v-3.029a4.507,4.507,0,0,1,4.506-4.507h6.876a4.507,4.507,0,0,1,4.507,4.507v24.2a27.259,27.259,0,0,1-.156,2.812c-.1.984-.258,1.986-.457,2.986a14.634,14.634,0,0,1-1.074,3.348,4.508,4.508,0,0,1-2.368,2.253l2.985,1.546a4.506,4.506,0,0,1,1.512,6.731,20.374,20.374,0,0,1-2.624,2.831,19.509,19.509,0,0,1-3.285,2.368,18.631,18.631,0,0,1-3.876,1.659A15.788,15.788,0,0,1,759.649,512.589Zm-7.826-15.546h7.3a2.492,2.492,0,0,0,2.069-.869,4.493,4.493,0,0,1,1.572-1.082l-3.09-1.6a4.507,4.507,0,0,1-2.393-4.605c.068-.494.149-1.2.249-2.118a26.532,26.532,0,0,0,.131-2.805v-2.581a15.1,15.1,0,0,1-2.312,3.238,14.589,14.589,0,0,1-4.011,3.007,4.5,4.5,0,0,1,.483,2.032Zm-7.972-25.38a1.134,1.134,0,0,0-.406.051,1.567,1.567,0,0,0-.283,1.082,1.738,1.738,0,0,0,.164.93,1.077,1.077,0,0,0,.524.092c.045,0,.44,0,.525-.09a1.737,1.737,0,0,0,.166-.932,1.614,1.614,0,0,0-.249-1.048A.757.757,0,0,0,743.851,471.664Z" transform="translate(-524.974 -454.778)" fill="#272f6b"/>
          <path id="路径_7551" data-name="路径 7551" d="M800.691,516.263a16.782,16.782,0,0,1-6.6-1.281,15.132,15.132,0,0,1-5.27-3.687,16.135,16.135,0,0,1-3.314-5.562,19.686,19.686,0,0,1-1.1-6.65,17.778,17.778,0,0,1,1.2-6.535,16.031,16.031,0,0,1,3.5-5.422,16.2,16.2,0,0,1,2.12-1.808q-.154-.124-.3-.25a22.938,22.938,0,0,1-2.384,1.806,25.648,25.648,0,0,1-9.125,3.618,4.505,4.505,0,0,1-5.4-4.417v-6.587a4.507,4.507,0,0,1,3.136-4.293c.253-.081.5-.162.735-.247a4.507,4.507,0,0,1-3.5-4.394v-6.085a4.506,4.506,0,0,1,4.506-4.506h3.944v-.519a4.507,4.507,0,0,1,4.506-4.506h7.19a4.506,4.506,0,0,1,4.506,4.506v.519h3.943a4.515,4.515,0,0,0,5.826-3.127h6.875a4.506,4.506,0,0,1,4.506,4.506v21.3a23.637,23.637,0,0,1-.16,2.633,27.191,27.191,0,0,1-.472,2.785,12.915,12.915,0,0,1-1.15,3.194,4.491,4.491,0,0,1-2.15,2.011,17.913,17.913,0,0,1,.941,5.821,18.9,18.9,0,0,1-1.184,6.738,16.615,16.615,0,0,1-3.386,5.5,15.34,15.34,0,0,1-5.318,3.669A16.994,16.994,0,0,1,800.691,516.263Zm-.267-15.906a1.49,1.49,0,0,0,.243.024,1.2,1.2,0,0,0,.485-.1,2.033,2.033,0,0,0-.107-1.755c-.016.009-.133-.013-.327-.013a1.869,1.869,0,0,0-.274.017,2.487,2.487,0,0,0-.153,1A1.956,1.956,0,0,0,800.424,500.357Zm-9.468-26.662h.009l-.007-.021-.007.021Zm-.463-6.014a4.343,4.343,0,0,1,.436.631,4.436,4.436,0,0,1,.437-.632.44.44,0,1,0-.873,0Z" transform="translate(-519.144 -454.935)" fill="#272f6b"/>
          <path id="路径_7552" data-name="路径 7552" d="M857.691,502.7H825.152A15.4,15.4,0,0,1,817,500.415a21.066,21.066,0,0,1-5.836-5.314,4.505,4.505,0,0,1,1.53-6.721l5.3-2.736a4.461,4.461,0,0,1,.813-.324v-6.28a4.508,4.508,0,0,1,3.349-4.357,9.055,9.055,0,0,0,5.806-3.87,15.866,15.866,0,0,0,1.972-8.3,4.507,4.507,0,0,1,4.507-4.506h7.4a4.507,4.507,0,0,1,4.506,4.506,15.865,15.865,0,0,0,1.969,8.3,9.057,9.057,0,0,0,5.806,3.872,4.508,4.508,0,0,1,3.351,4.357v6.866a4.5,4.5,0,0,1-.33,1.692h.546a4.506,4.506,0,0,1,4.506,4.506v6.086A4.506,4.506,0,0,1,857.691,502.7ZM838.116,470.96c.153,0,.306.008.456.023q-.238-.739-.429-1.51-.194.767-.43,1.5C837.847,470.967,837.984,470.963,838.116,470.96Z" transform="translate(-514.556 -454.546)" fill="#272f6b"/>
          <path id="路径_7553" data-name="路径 7553" d="M883.973,512.533H868.859a8.412,8.412,0,0,1-3.261-.657,8.685,8.685,0,0,1-5.339-8.094V490.03a8.69,8.69,0,0,1-8.451-8.71V462.075a4.507,4.507,0,0,1,4.506-4.507H863.3a4.507,4.507,0,0,1,4.506,4.507v12.858h4v-3.255a4.578,4.578,0,0,0,0-2.288v-5.751a4.506,4.506,0,0,1,4.506-4.506h5.615a4.506,4.506,0,0,1,4.042-2.512h6.874a4.506,4.506,0,0,1,4.506,4.506v23.086a27.546,27.546,0,0,1-.154,2.811c-.1.983-.258,1.987-.458,2.988a14.568,14.568,0,0,1-1.074,3.347,4.515,4.515,0,0,1-3.435,2.545l4.577,2.371a4.508,4.508,0,0,1,1.512,6.731,20.466,20.466,0,0,1-2.624,2.831,19.531,19.531,0,0,1-3.285,2.368,18.656,18.656,0,0,1-3.878,1.659A15.783,15.783,0,0,1,883.973,512.533Zm-7.826-15.546h7.3a2.874,2.874,0,0,0,1.154-.195,2.844,2.844,0,0,0,.915-.674,4.5,4.5,0,0,1,2.64-1.375l-4.682-2.425a4.506,4.506,0,0,1-2.115-2.34,4.387,4.387,0,0,1-.692.053h-4.521Z" transform="translate(-509.295 -454.722)" fill="#272f6b"/>
          <path id="路径_7554" data-name="路径 7554" d="M938.843,505a4.5,4.5,0,0,1-2.073-.506l-6.036-3.126a4.5,4.5,0,0,1-2.159-2.455H911.132a15.294,15.294,0,0,1-4.532-.671,16.97,16.97,0,0,1-3.86-1.735,19.806,19.806,0,0,1-3.124-2.365,19.554,19.554,0,0,1-2.53-2.85,4.508,4.508,0,0,1,1.587-6.643l5.406-2.788a4.5,4.5,0,0,1,3.543-.253v-3.391a4.506,4.506,0,0,1,4.506-4.506h5.309v-.925h-10.4a4.506,4.506,0,0,1-4.506-4.506v-6.087a4.507,4.507,0,0,1,4.506-4.507h21.781a4.539,4.539,0,0,1,1.294.188,4.493,4.493,0,0,1,3.114-1.248H940.1a4.506,4.506,0,0,1,4.507,4.506v9h2.211a4.506,4.506,0,0,1,4.506,4.506v6.2a4.507,4.507,0,0,1-4.506,4.506h-2.211v7.917a27.3,27.3,0,0,1-.155,2.81c-.1.984-.257,1.986-.457,2.986a14.671,14.671,0,0,1-1.074,3.349A4.511,4.511,0,0,1,938.843,505Z" transform="translate(-503.671 -454.722)" fill="#272f6b"/>
          <path id="路径_7555" data-name="路径 7555" d="M977.17,514.31a4.518,4.518,0,0,1-2.073-.5l-6.035-3.128a4.5,4.5,0,0,1-2.393-4.6q.1-.743.249-2.121a26.514,26.514,0,0,0,.131-2.8v-.8h-15.91a4.507,4.507,0,0,1-4.506-4.506v-6.085a4.5,4.5,0,0,1,.56-2.178,13.484,13.484,0,0,1-1.416-1.333,14.322,14.322,0,0,1-2.95-4.941,17.332,17.332,0,0,1-.97-5.842c0-.254,0-.506.014-.756a4.508,4.508,0,0,1-3.06-4.269v-6.086a4.507,4.507,0,0,1,4.506-4.506h4.941v-.407a4.507,4.507,0,0,1,4.507-4.506h7.3a4.507,4.507,0,0,1,4.507,4.506v.407h3.521a4.506,4.506,0,0,1,4.253-3.015h6.876a4.506,4.506,0,0,1,4.506,4.506v3.142h2.159a4.506,4.506,0,0,1,4.506,4.506v6.2a4.506,4.506,0,0,1-4.506,4.506h-2.159v2.083a21.7,21.7,0,0,1-.164,2.573,24.984,24.984,0,0,1-.479,2.695c-.1.447-.23.881-.372,1.3a4.523,4.523,0,0,1,.226,1.416v12.833a27.169,27.169,0,0,1-.154,2.805c-.1.977-.257,1.977-.457,2.98a14.574,14.574,0,0,1-1.077,3.344,4.506,4.506,0,0,1-2.631,2.351A4.556,4.556,0,0,1,977.17,514.31Zm-20.734-39.275v.238a1.011,1.011,0,0,0,.3-.129A.761.761,0,0,0,956.436,475.034Zm-.323.116a.452.452,0,0,0,.188.114l-.008-.227a.455.455,0,0,0-.158.062Z" transform="translate(-498.282 -454.935)" fill="#272f6b"/>
          <path id="路径_7556" data-name="路径 7556" d="M1011.1,512.746H995.984a8.416,8.416,0,0,1-3.26-.657A8.691,8.691,0,0,1,987.385,504v-14.18a4.521,4.521,0,0,1,.14-1.12,13.388,13.388,0,0,1-2.151-1.888,14.31,14.31,0,0,1-2.948-4.94,17.3,17.3,0,0,1-.972-5.844q0-.38.016-.757a4.509,4.509,0,0,1-3.06-4.269v-6.085a4.506,4.506,0,0,1,4.506-4.506h4.942v-.966a4.506,4.506,0,0,1,4.506-4.506h7.3a4.508,4.508,0,0,1,4.507,4.506v.966h3.364a4.508,4.508,0,0,1,4.41-3.574h6.876a4.506,4.506,0,0,1,4.506,4.506v5.822h2.159a4.507,4.507,0,0,1,4.506,4.506v6.086a4.507,4.507,0,0,1-4.506,4.506h-2.159V486.1a27.383,27.383,0,0,1-.155,2.81c-.1.961-.253,1.965-.456,2.981a14.671,14.671,0,0,1-1.075,3.355,4.508,4.508,0,0,1-1.111,1.475l3.407,1.765a4.5,4.5,0,0,1,1.512,6.732,20.422,20.422,0,0,1-2.623,2.831,19.458,19.458,0,0,1-3.285,2.368,18.623,18.623,0,0,1-3.876,1.66A15.789,15.789,0,0,1,1011.1,512.746Zm-7.828-15.546h7.3a2.495,2.495,0,0,0,2.07-.869c.1-.107.206-.21.316-.305l-3.513-1.819a4.505,4.505,0,0,1-2.394-4.6q.1-.743.249-2.124.071-.649.1-1.421c-.23.278-.469.55-.716.809a13.885,13.885,0,0,1-3.429,2.608c.008.108.011.22.011.331Zm-7.238-21.607v.24a1.006,1.006,0,0,0,.3-.133A.74.74,0,0,0,996.033,475.593Zm-.323.116a.457.457,0,0,0,.188.114l-.008-.229a.45.45,0,0,0-.16.063S995.721,475.681,995.71,475.709Z" transform="translate(-493.269 -454.935)" fill="#272f6b"/>
          <path id="路径_7557" data-name="路径 7557" d="M1056.94,505a4.5,4.5,0,0,1-2.073-.506l-6.035-3.126a4.505,4.505,0,0,1-2.394-4.6q.071-.532.168-1.39a4.489,4.489,0,0,1-.792.07h-17.95a8.135,8.135,0,0,1-3.391-.741,8.925,8.925,0,0,1-2.652-1.858,9.048,9.048,0,0,1-1.841-2.732,8.482,8.482,0,0,1-.715-3.419V463.08a4.507,4.507,0,0,1,4.506-4.506h22.043a4.511,4.511,0,0,0,5.511-1.953h6.874a4.507,4.507,0,0,1,4.507,4.506v7.832h2.211a4.507,4.507,0,0,1,4.507,4.506v6.087a4.507,4.507,0,0,1-4.507,4.506h-2.211v9.2a27.582,27.582,0,0,1-.154,2.81c-.1.984-.258,1.986-.459,2.986a14.724,14.724,0,0,1-1.073,3.349,4.51,4.51,0,0,1-4.08,2.591Z" transform="translate(-488.097 -454.722)" fill="#272f6b"/>
          <path id="路径_7558" data-name="路径 7558" d="M1084.413,515.6a16.887,16.887,0,0,1-6.4-1.2,15.03,15.03,0,0,1-5.234-3.546,15.756,15.756,0,0,1-3.348-5.379,19.862,19.862,0,0,1-.006-13.178,16.674,16.674,0,0,1,1.1-2.383h-3.073a8.137,8.137,0,0,1-3.392-.739,9.13,9.13,0,0,1-2.572-1.751,8.688,8.688,0,0,1-2.637-6.25V461.74a4.507,4.507,0,0,1,4.506-4.506h21.887a4.505,4.505,0,0,0,5.719-.614h6.877a4.507,4.507,0,0,1,4.507,4.506v3.869h2.159a4.506,4.506,0,0,1,4.506,4.506v6.086a4.506,4.506,0,0,1-4.506,4.506h-2.159v1.774a23.362,23.362,0,0,1-.161,2.632,26.7,26.7,0,0,1-.472,2.786,12.827,12.827,0,0,1-1.149,3.193,4.484,4.484,0,0,1-1.379,1.571c.033.084.065.168.1.252a19.842,19.842,0,0,1-.007,13.178,16.176,16.176,0,0,1-3.243,5.324,14.485,14.485,0,0,1-5.229,3.6A16.9,16.9,0,0,1,1084.413,515.6Zm0-17.811a1.184,1.184,0,0,0-.436.055,1.667,1.667,0,0,0-.252,1.022,1.581,1.581,0,0,0,.163.873c.085.09.48.091.525.091a.76.76,0,0,0,.472-.09,1.574,1.574,0,0,0,.164-.874,1.724,1.724,0,0,0-.22-.99A.672.672,0,0,0,1084.413,497.792Zm-9.664-22.971h11.718v-2.653a4.487,4.487,0,0,1-1.213.165h-10.5Z" transform="translate(-483.084 -454.722)" fill="#272f6b"/>
        </g>
      </g>
    </g>
    <g id="组_715" data-name="组 715" transform="translate(4.506 37.422)">
      <g id="组_714" data-name="组 714">
        <path id="路径_7559" data-name="路径 7559" d="M576.03,492.648a9.692,9.692,0,0,1-2.153,2.763,8.823,8.823,0,0,1-2.6,1.564,11.769,11.769,0,0,1-2.965.7,31.519,31.519,0,0,1-3.358.168H554.879a2.309,2.309,0,0,1-1.837-.865,2.972,2.972,0,0,1-.734-1.983V483.435a4.927,4.927,0,0,1,.367-1.9,5.088,5.088,0,0,1,1-1.564,5.324,5.324,0,0,1,1.443-1.089,3.8,3.8,0,0,1,1.759-.418q1.468,0,3.385-.056a15.4,15.4,0,0,0,3.648-.529,7.079,7.079,0,0,0,2.912-1.537,3.912,3.912,0,0,0,1.182-3.07,4.372,4.372,0,0,0-.42-1.926,4.8,4.8,0,0,0-1.1-1.479,5.305,5.305,0,0,0-1.6-.978,5.182,5.182,0,0,0-1.915-.362,3.686,3.686,0,0,0-1.994.558,5.771,5.771,0,0,0-1.549,1.424,9.768,9.768,0,0,0-1.128,1.926,10.169,10.169,0,0,0-.683,2.066l-5.826-3.016a17.628,17.628,0,0,1,1.575-3.852,13.254,13.254,0,0,1,2.388-3.126,10.2,10.2,0,0,1,3.2-2.094,10.34,10.34,0,0,1,4.014-.755,11.946,11.946,0,0,1,4.382.81,11.041,11.041,0,0,1,3.648,2.316,10.852,10.852,0,0,1,2.493,3.713,14.249,14.249,0,0,1,.1,9.771,9.6,9.6,0,0,1-2.126,3.267,10.179,10.179,0,0,1-2.991,2.037,15.671,15.671,0,0,1-3.359,1.089,22.94,22.94,0,0,1-3.254.419q-1.575.083-2.677.084v6.365h5.249a20.107,20.107,0,0,0,3.122-.251,4.013,4.013,0,0,0,2.651-1.647Z" transform="translate(-551.782 -458.59)" fill="#fff"/>
        <path id="路径_7560" data-name="路径 7560" d="M585.95,461.561a11.926,11.926,0,0,1,4.5.866,9.441,9.441,0,0,1,3.822,2.958,15.825,15.825,0,0,1,2.671,5.557,31.839,31.839,0,0,1,.995,8.653,32.411,32.411,0,0,1-.995,8.738,16.118,16.118,0,0,1-2.671,5.612,9.583,9.583,0,0,1-3.822,3.015,11.611,11.611,0,0,1-4.5.893,11.975,11.975,0,0,1-4.478-.865,9.373,9.373,0,0,1-3.848-2.96,15.785,15.785,0,0,1-2.671-5.555,31.848,31.848,0,0,1-1-8.653,32.406,32.406,0,0,1,1-8.738,16.131,16.131,0,0,1,2.671-5.613,9.544,9.544,0,0,1,3.848-3.015A11.684,11.684,0,0,1,585.95,461.561Zm5.117,18.035a29.449,29.449,0,0,0-.423-5.472,11.938,11.938,0,0,0-1.133-3.461,4.359,4.359,0,0,0-1.637-1.787,3.976,3.976,0,0,0-1.924-.5,3.817,3.817,0,0,0-1.925.531,4.556,4.556,0,0,0-1.637,1.843,12.363,12.363,0,0,0-1.133,3.517,30.332,30.332,0,0,0-.421,5.557,27.642,27.642,0,0,0,.421,5.359,10.673,10.673,0,0,0,1.133,3.266,4.021,4.021,0,0,0,1.637,1.648,4.368,4.368,0,0,0,1.925.446,4.136,4.136,0,0,0,1.924-.475,4.19,4.19,0,0,0,1.637-1.7,11.081,11.081,0,0,0,1.133-3.351A28.509,28.509,0,0,0,591.067,479.6Z" transform="translate(-548.975 -458.603)" fill="#fff"/>
        <path id="路径_7561" data-name="路径 7561" d="M622.056,492.648a9.7,9.7,0,0,1-2.152,2.763,8.848,8.848,0,0,1-2.6,1.564,11.771,11.771,0,0,1-2.965.7,31.5,31.5,0,0,1-3.358.168H600.906a2.307,2.307,0,0,1-1.838-.865,2.969,2.969,0,0,1-.736-1.983V483.435a4.931,4.931,0,0,1,.368-1.9,5.066,5.066,0,0,1,1-1.564,5.31,5.31,0,0,1,1.444-1.089,3.793,3.793,0,0,1,1.757-.418q1.468,0,3.385-.056a15.4,15.4,0,0,0,3.648-.529,7.074,7.074,0,0,0,2.912-1.537,3.912,3.912,0,0,0,1.181-3.07,4.362,4.362,0,0,0-.42-1.926,4.774,4.774,0,0,0-1.1-1.479,5.3,5.3,0,0,0-1.6-.978,5.191,5.191,0,0,0-1.916-.362,3.687,3.687,0,0,0-1.994.558,5.79,5.79,0,0,0-1.548,1.424,9.711,9.711,0,0,0-1.129,1.926,10.253,10.253,0,0,0-.683,2.066l-5.824-3.016a17.571,17.571,0,0,1,1.574-3.852,13.3,13.3,0,0,1,2.389-3.126,10.211,10.211,0,0,1,3.2-2.094,10.344,10.344,0,0,1,4.014-.755,11.94,11.94,0,0,1,4.382.81,11.017,11.017,0,0,1,3.648,2.316,10.855,10.855,0,0,1,2.493,3.713,14.226,14.226,0,0,1,.1,9.771,9.57,9.57,0,0,1-2.126,3.267,10.184,10.184,0,0,1-2.991,2.037,15.644,15.644,0,0,1-3.358,1.089,22.965,22.965,0,0,1-3.255.419q-1.575.083-2.677.084v6.365h5.249a20.129,20.129,0,0,0,3.123-.251,4.011,4.011,0,0,0,2.65-1.647Z" transform="translate(-545.955 -458.59)" fill="#fff"/>
        <path id="路径_7562" data-name="路径 7562" d="M631.976,461.561a11.928,11.928,0,0,1,4.5.866,9.45,9.45,0,0,1,3.823,2.958,15.829,15.829,0,0,1,2.671,5.557,31.887,31.887,0,0,1,.994,8.653,32.459,32.459,0,0,1-.994,8.738,16.121,16.121,0,0,1-2.671,5.612,9.593,9.593,0,0,1-3.823,3.015,11.612,11.612,0,0,1-4.5.893,11.976,11.976,0,0,1-4.478-.865,9.371,9.371,0,0,1-3.849-2.96,15.784,15.784,0,0,1-2.671-5.555,31.854,31.854,0,0,1-.995-8.653,32.413,32.413,0,0,1,.995-8.738,16.13,16.13,0,0,1,2.671-5.613,9.543,9.543,0,0,1,3.849-3.015A11.686,11.686,0,0,1,631.976,461.561Zm5.117,18.035a29.483,29.483,0,0,0-.422-5.472,11.918,11.918,0,0,0-1.133-3.461,4.357,4.357,0,0,0-1.636-1.787,3.98,3.98,0,0,0-1.925-.5,3.82,3.82,0,0,0-1.925.531,4.555,4.555,0,0,0-1.636,1.843,12.34,12.34,0,0,0-1.135,3.517,30.346,30.346,0,0,0-.421,5.557,27.654,27.654,0,0,0,.421,5.359,10.653,10.653,0,0,0,1.135,3.266,4.02,4.02,0,0,0,1.636,1.648,4.372,4.372,0,0,0,1.925.446,4.141,4.141,0,0,0,1.925-.475,4.188,4.188,0,0,0,1.636-1.7,11.063,11.063,0,0,0,1.133-3.351A28.542,28.542,0,0,0,637.092,479.6Z" transform="translate(-543.148 -458.603)" fill="#fff"/>
        <path id="路径_7563" data-name="路径 7563" d="M663.4,470.566a11.787,11.787,0,0,1,.814-4.467,10.027,10.027,0,0,1,2.258-3.434,9.885,9.885,0,0,1,3.516-2.206,13.893,13.893,0,0,1,9.184,0,9.908,9.908,0,0,1,3.516,2.206,10.047,10.047,0,0,1,2.257,3.434,11.8,11.8,0,0,1,.814,4.467,11.07,11.07,0,0,1-2.074,6.838,10.058,10.058,0,0,1-5.694,3.713v2.68h16.164v6.086H661.615a10.9,10.9,0,0,1-5.8-1.619,16.518,16.518,0,0,1-4.592-4.188l5.3-2.736a6.726,6.726,0,0,0,2.544,1.954,8.583,8.583,0,0,0,3.124.5h8.555v-2.792a9.713,9.713,0,0,1-5.406-3.741A11.264,11.264,0,0,1,663.4,470.566Zm28.184,31.88a16,16,0,0,1-2.048,2.206,14.861,14.861,0,0,1-2.518,1.814,14.15,14.15,0,0,1-2.939,1.256,11.254,11.254,0,0,1-3.253.474H664.66a3.922,3.922,0,0,1-1.522-.306,4.21,4.21,0,0,1-1.312-.866,4.142,4.142,0,0,1-.919-1.34,4.285,4.285,0,0,1-.34-1.731v-11.39h6.875v7.483a1.977,1.977,0,0,0,.314,1.2,1.438,1.438,0,0,0,1.209.419H680.3a7.282,7.282,0,0,0,2.991-.586,7.36,7.36,0,0,0,2.361-1.7Zm-21.938-31.825a5.154,5.154,0,0,0,1.26,3.545,4.385,4.385,0,0,0,3.464,1.424,4.632,4.632,0,0,0,3.542-1.424,4.98,4.98,0,0,0,1.339-3.545,5.475,5.475,0,0,0-1.235-3.573,4.315,4.315,0,0,0-3.543-1.508,4.431,4.431,0,0,0-3.568,1.479A5.367,5.367,0,0,0,669.646,470.622Z" transform="translate(-539.193 -458.841)" fill="#fff"/>
        <path id="路径_7564" data-name="路径 7564" d="M715.823,490.881H697.77a3.638,3.638,0,0,1-1.523-.335,4.631,4.631,0,0,1-1.311-.893,4.2,4.2,0,0,1-1.259-3.015V473.685H708v-4.914H693.57v-6.2h21.152v16.974H700.761v3.611q0,1.638,1.522,1.637h13.54Zm10.706-18.09h6.718v6.086h-6.718v13.875a22.878,22.878,0,0,1-.131,2.344q-.131,1.256-.395,2.568a10.045,10.045,0,0,1-.734,2.318l-6.035-3.127q.1-.783.263-2.233a30.944,30.944,0,0,0,.157-3.294V460.62h6.875Z" transform="translate(-533.833 -458.722)" fill="#fff"/>
        <path id="路径_7565" data-name="路径 7565" d="M743.345,460.174a11.684,11.684,0,0,1,4.619.893,10.506,10.506,0,0,1,3.595,2.484,11.012,11.012,0,0,1,2.31,3.825,15.245,15.245,0,0,1,0,9.826,11.014,11.014,0,0,1-2.31,3.826,10.2,10.2,0,0,1-3.595,2.456,12.761,12.761,0,0,1-9.237,0,10.212,10.212,0,0,1-3.595-2.456A11.342,11.342,0,0,1,732.8,477.2a14.8,14.8,0,0,1,0-9.826,11.339,11.339,0,0,1,2.336-3.825,10.52,10.52,0,0,1,3.595-2.484A11.687,11.687,0,0,1,743.345,460.174Zm0,17.643a4.992,4.992,0,0,0,3.779-1.479,5.608,5.608,0,0,0,1.417-4.049,5.832,5.832,0,0,0-1.417-4.076,5.35,5.35,0,0,0-7.557,0,5.833,5.833,0,0,0-1.417,4.076,5.609,5.609,0,0,0,1.417,4.049A4.989,4.989,0,0,0,743.345,477.818ZM769.9,501.826a16.006,16.006,0,0,1-2.047,2.2,14.794,14.794,0,0,1-2.519,1.814A14.035,14.035,0,0,1,762.4,507.1a11.256,11.256,0,0,1-3.254.475H744.029a3.924,3.924,0,0,1-1.523-.308,4.2,4.2,0,0,1-1.311-.865,4.131,4.131,0,0,1-.918-1.34,4.263,4.263,0,0,1-.341-1.731v-14.18h6.875v10.272a1.961,1.961,0,0,0,.314,1.2,1.436,1.436,0,0,0,1.207.419h10.287a6.966,6.966,0,0,0,5.354-2.289Zm-8.24-41.15h6.876v24.2a22.61,22.61,0,0,1-.132,2.345q-.132,1.257-.393,2.569a10.111,10.111,0,0,1-.734,2.318l-6.037-3.127q.106-.781.264-2.233a31.2,31.2,0,0,0,.157-3.294Z" transform="translate(-528.974 -458.778)" fill="#fff"/>
        <path id="路径_7566" data-name="路径 7566" d="M778.011,478.979a22.919,22.919,0,0,0,3.595-1.451,9.306,9.306,0,0,0,2.493-1.843,8.006,8.006,0,0,0,1.574-2.457,13.424,13.424,0,0,0,.84-3.183h-8.135v-6.085h8.451v-5.026h7.19v5.026h8.449v6.085h-8.135a10.573,10.573,0,0,0,2.624,5.7,13.951,13.951,0,0,0,6.246,3.293v6.645a24.838,24.838,0,0,1-7.768-3.043,13.66,13.66,0,0,1-4.985-4.941,16.253,16.253,0,0,1-4.908,4.913,21.07,21.07,0,0,1-7.531,2.958Zm10.392,19.6a13.245,13.245,0,0,1,.889-4.886,11.515,11.515,0,0,1,2.515-3.908,11.692,11.692,0,0,1,3.8-2.569,12.156,12.156,0,0,1,4.792-.921,11.828,11.828,0,0,1,4.712.921,11.175,11.175,0,0,1,3.718,2.569,11.933,11.933,0,0,1,2.462,3.908,13.221,13.221,0,0,1,.89,4.886,14.365,14.365,0,0,1-.89,5.137,12.067,12.067,0,0,1-2.462,4.02,10.831,10.831,0,0,1-3.769,2.6,12.478,12.478,0,0,1-4.871.922,12.27,12.27,0,0,1-4.843-.922,10.62,10.62,0,0,1-3.718-2.6,11.612,11.612,0,0,1-2.384-4.02A15.161,15.161,0,0,1,788.4,498.576Zm11.809-5.081A4.532,4.532,0,0,0,796.564,495a5.984,5.984,0,0,0-1.285,4.021,5.63,5.63,0,0,0,1.311,3.88,4.657,4.657,0,0,0,3.675,1.479,5.137,5.137,0,0,0,3.7-1.563,5.382,5.382,0,0,0,1.337-3.8,5.909,5.909,0,0,0-1.337-3.937A4.639,4.639,0,0,0,800.212,493.5Zm1.049-22.277h7.033V460.833h6.876v21.3a18.962,18.962,0,0,1-.132,2.123,22.157,22.157,0,0,1-.393,2.317,8.355,8.355,0,0,1-.735,2.066l-6.035-2.849q.1-.723.261-2.01a24.392,24.392,0,0,0,.158-2.958v-3.629h-7.033Z" transform="translate(-523.144 -458.935)" fill="#fff"/>
        <path id="路径_7567" data-name="路径 7567" d="M819.556,489.143A6.741,6.741,0,0,0,822.1,491.1a8.6,8.6,0,0,0,3.123.5h8.607v-7.873h7.085V491.6h16.269v6.086H824.646a10.9,10.9,0,0,1-5.8-1.62,16.5,16.5,0,0,1-4.592-4.186Zm18.053-14.182a14.448,14.448,0,0,1-2.65,3.853,22.009,22.009,0,0,1-3.649,3.07,22.985,22.985,0,0,1-4.2,2.234,22.262,22.262,0,0,1-4.3,1.283v-6.867q5.878-1.562,8.5-5.891a20.155,20.155,0,0,0,2.626-10.635h7.4a20.144,20.144,0,0,0,2.624,10.635q2.625,4.33,8.5,5.891V485.4a20.45,20.45,0,0,1-4.331-1.312,25.952,25.952,0,0,1-4.172-2.233,20.884,20.884,0,0,1-3.647-3.043A15.467,15.467,0,0,1,837.609,474.96Z" transform="translate(-518.555 -458.546)" fill="#fff"/>
        <path id="路径_7568" data-name="路径 7568" d="M859.9,485.019a4.025,4.025,0,0,1-2.833-1.189,3.97,3.97,0,0,1-1.26-3.016V461.568h6.981v15.746a1.972,1.972,0,0,0,.314,1.2,1.44,1.44,0,0,0,1.206.418h15.851v6.086Zm34.324,16.751a15.944,15.944,0,0,1-2.046,2.2,14.86,14.86,0,0,1-2.52,1.814,14,14,0,0,1-2.938,1.256,11.25,11.25,0,0,1-3.254.475H868.353a3.922,3.922,0,0,1-1.522-.307,4.188,4.188,0,0,1-1.311-.865,4.136,4.136,0,0,1-.919-1.34,4.28,4.28,0,0,1-.34-1.731V489.1h6.875v10.272a1.967,1.967,0,0,0,.314,1.2,1.437,1.437,0,0,0,1.207.419h10.287A6.959,6.959,0,0,0,888.3,498.7Zm-18.421-32.886v-5.751h9.657V460.62h6.874v23.086a22.86,22.86,0,0,1-.131,2.345q-.132,1.257-.393,2.569a10.1,10.1,0,0,1-.735,2.316l-6.035-3.126q.1-.781.262-2.234a30.821,30.821,0,0,0,.158-3.293v-5.36h-9.657v-5.751h9.657v-2.288Z" transform="translate(-513.295 -458.722)" fill="#fff"/>
        <path id="路径_7569" data-name="路径 7569" d="M911.623,487.81V477.7h6.718V487.81h12.07V493.9H910.626a10.756,10.756,0,0,1-3.2-.47,12.343,12.343,0,0,1-2.834-1.273,15.112,15.112,0,0,1-4.358-4.011l5.406-2.789a7.977,7.977,0,0,0,2.335,1.87,7.342,7.342,0,0,0,3.228.587Zm16.689-11.669q0,2.011-.209,4.384a12.274,12.274,0,0,1-1.05,4.158l-6.035-3.125a18.713,18.713,0,0,0,.34-2.708q.08-1.424.08-2.82v-8.262H906.532V461.68h21.78Zm11.284-2.01h6.718v6.2H939.6v12.424a22.862,22.862,0,0,1-.131,2.344q-.134,1.256-.394,2.568a10.137,10.137,0,0,1-.735,2.318l-6.036-3.127q.106-.783.263-2.233a31.236,31.236,0,0,0,.156-3.294V460.62H939.6Z" transform="translate(-507.672 -458.722)" fill="#fff"/>
        <path id="路径_7570" data-name="路径 7570" d="M942.812,469.934v-6.086h9.447v-4.913h7.3v4.913H969v6.086h-3.884a11.677,11.677,0,0,1,1.05,5.025,12.369,12.369,0,0,1-.733,4.327,9.751,9.751,0,0,1-2.1,3.406,9.415,9.415,0,0,1-3.253,2.2,10.861,10.861,0,0,1-4.2.783,10.465,10.465,0,0,1-4.146-.783,8.987,8.987,0,0,1-3.149-2.2,9.794,9.794,0,0,1-2.02-3.406,12.783,12.783,0,0,1-.708-4.327,11.684,11.684,0,0,1,1.049-5.025Zm35.111,30.4v1.753a22.8,22.8,0,0,1-.131,2.34c-.088.835-.219,1.686-.393,2.561a10.155,10.155,0,0,1-.736,2.311l-6.035-3.127q.1-.784.262-2.233a30.926,30.926,0,0,0,.158-3.294v-5.3H950.633v-6.085h27.291ZM955.88,470.268A3.619,3.619,0,0,0,953,471.554a4.631,4.631,0,0,0-1.1,3.125,4.308,4.308,0,0,0,1.181,3.156,3.861,3.861,0,0,0,2.86,1.2,4.3,4.3,0,0,0,4.147-4.355,4.348,4.348,0,0,0-1.234-3.125A3.969,3.969,0,0,0,955.88,470.268Zm22.832,4.411v6.589a16.988,16.988,0,0,1-.133,2.037,20.449,20.449,0,0,1-.392,2.206,8.463,8.463,0,0,1-.735,2.011l-5.931-3.072q.1-.725.209-1.842t.1-2.569V460.833h6.877v7.648h6.665v6.2Z" transform="translate(-502.282 -458.935)" fill="#fff"/>
        <path id="路径_7571" data-name="路径 7571" d="M982.409,470.492v-6.085h9.448v-5.472h7.295v5.472h9.446v6.085h-3.884a11.681,11.681,0,0,1,1.05,5.026,12.347,12.347,0,0,1-.735,4.327,9.74,9.74,0,0,1-2.1,3.406,9.466,9.466,0,0,1-3.254,2.206,10.876,10.876,0,0,1-4.2.781,10.491,10.491,0,0,1-4.146-.781,9.026,9.026,0,0,1-3.149-2.206,9.833,9.833,0,0,1-2.021-3.406,12.775,12.775,0,0,1-.709-4.327,11.683,11.683,0,0,1,1.05-5.026Zm38.943,31.492a16.018,16.018,0,0,1-2.047,2.2,14.865,14.865,0,0,1-2.519,1.814,14.054,14.054,0,0,1-2.938,1.256,11.249,11.249,0,0,1-3.255.475H995.478a3.928,3.928,0,0,1-1.522-.307,4.223,4.223,0,0,1-1.312-.865,4.145,4.145,0,0,1-.917-1.339,4.265,4.265,0,0,1-.342-1.731v-14.18h6.875v10.272a1.959,1.959,0,0,0,.315,1.2,1.434,1.434,0,0,0,1.207.419h10.287a6.962,6.962,0,0,0,5.353-2.289ZM991.49,475.238a4.3,4.3,0,0,0,1.181,3.154,3.861,3.861,0,0,0,2.86,1.2,4.2,4.2,0,0,0,2.913-1.284,4.161,4.161,0,0,0,1.233-3.071,4.349,4.349,0,0,0-1.233-3.126,3.968,3.968,0,0,0-2.966-1.284,3.621,3.621,0,0,0-2.886,1.284A4.638,4.638,0,0,0,991.49,475.238Zm19.524,14.461c.068-.522.157-1.265.261-2.233a30.59,30.59,0,0,0,.158-3.294V460.833h6.875v10.329h6.665v6.086h-6.665V485.6a22.871,22.871,0,0,1-.131,2.344q-.13,1.256-.393,2.569a10.233,10.233,0,0,1-.735,2.317Z" transform="translate(-497.269 -458.935)" fill="#fff"/>
        <path id="路径_7572" data-name="路径 7572" d="M1027.358,490.435a3.63,3.63,0,0,1-1.521-.336,4.373,4.373,0,0,1-1.312-.92,4.509,4.509,0,0,1-.92-1.369,4,4,0,0,1-.34-1.619V462.573h22.043v27.862Zm11.074-21.775h-8.293v14.063a1.778,1.778,0,0,0,.394,1.121,1.344,1.344,0,0,0,1.129.5h6.77Zm19.261,4.3h6.718v6.087h-6.718v13.707a23,23,0,0,1-.13,2.344q-.132,1.256-.395,2.568a10.152,10.152,0,0,1-.734,2.318l-6.035-3.127q.1-.783.262-2.233a30.842,30.842,0,0,0,.158-3.294V460.62h6.875Z" transform="translate(-492.097 -458.722)" fill="#fff"/>
        <path id="路径_7573" data-name="路径 7573" d="M1084.747,461.234v6.086h-15.011V477.2a1.846,1.846,0,0,0,.343,1.2,1.514,1.514,0,0,0,1.232.419h14.958v6.086h-19.314a3.622,3.622,0,0,1-1.521-.333,4.6,4.6,0,0,1-1.313-.891,4.185,4.185,0,0,1-1.26-3.009V461.234Zm-.84,24.846a12,12,0,0,1,4.7.893,10.287,10.287,0,0,1,3.621,2.512,11.607,11.607,0,0,1,2.335,3.88,15.359,15.359,0,0,1,0,10.022,11.677,11.677,0,0,1-2.335,3.853,10,10,0,0,1-3.621,2.484,13.165,13.165,0,0,1-9.4,0,10.5,10.5,0,0,1-3.674-2.484,11.225,11.225,0,0,1-2.389-3.853,15.385,15.385,0,0,1,0-10.022,11.162,11.162,0,0,1,2.389-3.88,10.815,10.815,0,0,1,3.674-2.512A12,12,0,0,1,1083.907,486.08Zm0,17.754a4.925,4.925,0,0,0,3.727-1.479,5.529,5.529,0,0,0,1.416-3.992,5.73,5.73,0,0,0-1.416-4.048,4.83,4.83,0,0,0-3.727-1.536,4.889,4.889,0,0,0-3.778,1.536,5.729,5.729,0,0,0-1.417,4.048,5.528,5.528,0,0,0,1.417,3.992A4.987,4.987,0,0,0,1083.907,503.834Zm6.141-18.815q.1-.723.262-2.01a24.656,24.656,0,0,0,.157-2.959V460.62h6.877V469h6.665v6.086h-6.665v6.281a18.931,18.931,0,0,1-.132,2.121,22.649,22.649,0,0,1-.393,2.317,8.323,8.323,0,0,1-.734,2.066Z" transform="translate(-487.085 -458.722)" fill="#fff"/>
      </g>
    </g>
    <g id="组_716" data-name="组 716" transform="translate(3.284)">
      <path id="路径_7574" data-name="路径 7574" d="M560.8,438.3v7.679h-3.45V438.3L550.7,426.555h3.853l4.607,8.567,4.526-8.567h3.771Z" transform="translate(-550.697 -425.612)" fill="#f22d48"/>
      <path id="路径_7575" data-name="路径 7575" d="M573.366,430.668a5.937,5.937,0,0,1,4.553,1.724,6.856,6.856,0,0,1,1.615,4.876v1.8a6.854,6.854,0,0,1-1.615,4.876,6.87,6.87,0,0,1-9.105,0,6.855,6.855,0,0,1-1.617-4.876v-1.8a6.849,6.849,0,0,1,1.617-4.889A5.96,5.96,0,0,1,573.366,430.668Zm0,13.389a4.07,4.07,0,0,0,3.165-1.253,5.535,5.535,0,0,0,1.146-3.838v-1.59a5.538,5.538,0,0,0-1.146-3.838,4.625,4.625,0,0,0-6.33,0,5.537,5.537,0,0,0-1.145,3.838v1.59A5.535,5.535,0,0,0,570.2,442.8,4.072,4.072,0,0,0,573.366,444.056Z" transform="translate(-548.608 -425.091)" fill="#fff"/>
      <path id="路径_7576" data-name="路径 7576" d="M586.345,445.643a4.935,4.935,0,0,1-3.771-1.373,5.1,5.1,0,0,1-1.293-3.638v-9.725h1.832v9.267a6.894,6.894,0,0,0,.149,1.467,3.184,3.184,0,0,0,.525,1.213,2.475,2.475,0,0,0,1.064.821,4.482,4.482,0,0,0,1.765.3,4.313,4.313,0,0,0,3-1.172,3.98,3.98,0,0,0,.862-1.172,2.975,2.975,0,0,0,.31-1.293v-9.429h1.833v14.521h-1.806v-2.021a4.918,4.918,0,0,1-1.629,1.536A5.281,5.281,0,0,1,586.345,445.643Z" transform="translate(-546.825 -425.061)" fill="#fff"/>
      <path id="路径_7577" data-name="路径 7577" d="M596.48,432.89H594v-1.563h2.478v-3.745h1.832v3.745h4.015v1.563h-4.015v8.836a3.419,3.419,0,0,0,.472,2.074,1.9,1.9,0,0,0,1.575.592,7.626,7.626,0,0,0,2.048-.268l.269,1.508a5.336,5.336,0,0,1-1.144.256,9.975,9.975,0,0,1-1.307.095,5.728,5.728,0,0,1-1.656-.215,2.619,2.619,0,0,1-1.172-.7,3.073,3.073,0,0,1-.688-1.281,7.286,7.286,0,0,1-.229-1.979Z" transform="translate(-545.215 -425.482)" fill="#fff"/>
      <path id="路径_7578" data-name="路径 7578" d="M610.724,431.295a5.226,5.226,0,0,1,3.865,1.36,4.935,4.935,0,0,1,1.362,3.65v9.78h-1.832v-9.321a6.464,6.464,0,0,0-.161-1.468,3.046,3.046,0,0,0-.581-1.212,2.767,2.767,0,0,0-1.131-.822,4.715,4.715,0,0,0-1.791-.3,4.2,4.2,0,0,0-2.99,1.213,4.286,4.286,0,0,0-.849,1.184,2.967,2.967,0,0,0-.31,1.294v9.428h-1.832V425.718h1.832v7.866a4.584,4.584,0,0,1,.647-.821,4.4,4.4,0,0,1,.955-.74,5.482,5.482,0,0,1,1.253-.526A5.662,5.662,0,0,1,610.724,431.295Z" transform="translate(-543.889 -425.718)" fill="#fff"/>
      <path id="路径_7579" data-name="路径 7579" d="M636.433,444.126a9.1,9.1,0,0,1-2.533,1.158,12.665,12.665,0,0,1-3.555.431,9.317,9.317,0,0,1-2.506-.337,5.772,5.772,0,0,1-2.168-1.131,5.6,5.6,0,0,1-1.537-2.128,8.363,8.363,0,0,1-.579-3.327v-1.537a8.34,8.34,0,0,1,.525-3.111,5.861,5.861,0,0,1,1.442-2.155,5.781,5.781,0,0,1,2.14-1.254,8.438,8.438,0,0,1,2.654-.4,8.088,8.088,0,0,1,2.6.4,5.506,5.506,0,0,1,2.06,1.226,5.681,5.681,0,0,1,1.349,2.048,7.687,7.687,0,0,1,.483,2.842V439.3h-9.94a3.542,3.542,0,0,0,.943,2.68,3.783,3.783,0,0,0,2.721.9,8.8,8.8,0,0,0,2.345-.283,9.481,9.481,0,0,0,2.154-.929Zm-2.882-7.381V436.1a3.636,3.636,0,0,0-.177-1.131,2.33,2.33,0,0,0-.578-.943,2.951,2.951,0,0,0-1.023-.647,4.172,4.172,0,0,0-1.509-.242,3.366,3.366,0,0,0-2.547.889,3.006,3.006,0,0,0-.848,2.155v.566Z" transform="translate(-541.474 -425.134)" fill="#ffc136"/>
      <path id="路径_7580" data-name="路径 7580" d="M637.641,434.661h8.028v1.185h-8.028Z" transform="translate(-539.691 -424.586)" fill="#fff"/>
      <path id="路径_7581" data-name="路径 7581" d="M654.341,443.21a4.37,4.37,0,0,0,2.694-.66,2.032,2.032,0,0,0,.835-1.657v-.3a1.969,1.969,0,0,0-.876-1.764,7.828,7.828,0,0,0-2.544-.957q-1.213-.268-2.438-.565a7.754,7.754,0,0,1-2.209-.889,4.7,4.7,0,0,1-1.6-1.6,5.134,5.134,0,0,1-.62-2.707v-.349a5.368,5.368,0,0,1,.35-1.846,4.852,4.852,0,0,1,1.158-1.765,6.2,6.2,0,0,1,2.141-1.333,9.046,9.046,0,0,1,3.3-.525,13.967,13.967,0,0,1,3.1.337,9.424,9.424,0,0,1,2.963,1.28l-1.617,2.667a7.024,7.024,0,0,0-2.209-.983,10,10,0,0,0-2.181-.229,5.247,5.247,0,0,0-1.589.215,3.544,3.544,0,0,0-1.119.565,2.45,2.45,0,0,0-.659.755,1.7,1.7,0,0,0-.216.809v.322a1.789,1.789,0,0,0,.337,1.132,2.6,2.6,0,0,0,.9.713,5.967,5.967,0,0,0,1.333.458c.512.116,1.056.239,1.63.364a13.778,13.778,0,0,1,2.9.928,6.809,6.809,0,0,1,1.886,1.254,4.16,4.16,0,0,1,1.024,1.549,5.338,5.338,0,0,1,.309,1.844v.35a5.734,5.734,0,0,1-.578,2.707,4.739,4.739,0,0,1-1.576,1.752,6.738,6.738,0,0,1-2.291.943,12.6,12.6,0,0,1-2.694.283,12,12,0,0,1-2.061-.176,13.021,13.021,0,0,1-1.9-.472,10.146,10.146,0,0,1-1.657-.713,8.823,8.823,0,0,1-1.334-.875l1.671-2.748a8.505,8.505,0,0,0,5.443,1.886Z" transform="translate(-538.477 -425.645)" fill="#8dc63f"/>
      <path id="路径_7582" data-name="路径 7582" d="M668.324,430.668a9.02,9.02,0,0,1,2.695.363,6.7,6.7,0,0,1,2.074,1.065l-.835,1.427a6.622,6.622,0,0,0-1.967-.956,7.493,7.493,0,0,0-1.967-.256,3.809,3.809,0,0,0-3.044,1.281,5.293,5.293,0,0,0-1.1,3.569v1.858a5.425,5.425,0,0,0,1.133,3.691,3.866,3.866,0,0,0,3.07,1.293,6.419,6.419,0,0,0,2.492-.417,8.225,8.225,0,0,0,1.766-1.011l.861,1.454c-.268.2-.566.4-.889.594a6.405,6.405,0,0,1-1.1.525,8.771,8.771,0,0,1-1.4.376,9.492,9.492,0,0,1-1.75.149,5.72,5.72,0,0,1-4.447-1.738,7.024,7.024,0,0,1-1.589-4.916v-1.8a8.215,8.215,0,0,1,.445-2.815,5.782,5.782,0,0,1,1.225-2.047,5.132,5.132,0,0,1,1.886-1.252A6.685,6.685,0,0,1,668.324,430.668Z" transform="translate(-536.567 -425.091)" fill="#fff"/>
      <path id="路径_7583" data-name="路径 7583" d="M674.727,426.627h1.994v2.047h-1.994Zm.081,4.822h1.832v14.521h-1.832Z" transform="translate(-534.996 -425.603)" fill="#fff"/>
      <path id="路径_7584" data-name="路径 7584" d="M691.146,444.029a9.969,9.969,0,0,1-2.155,1.131,8.49,8.49,0,0,1-3.124.513,5.874,5.874,0,0,1-4.527-1.738,6.943,6.943,0,0,1-1.616-4.916v-1.8a6.886,6.886,0,0,1,1.575-4.822,5.567,5.567,0,0,1,4.324-1.724,5.386,5.386,0,0,1,4.351,1.764,7.242,7.242,0,0,1,1.5,4.835v1.509h-9.913v.242a5.444,5.444,0,0,0,1.158,3.732,4.026,4.026,0,0,0,3.178,1.306,7.015,7.015,0,0,0,2.559-.43,8.451,8.451,0,0,0,1.885-1Zm-1.508-6.789V437a5.2,5.2,0,0,0-1.05-3.5,4.2,4.2,0,0,0-5.968.067A5.2,5.2,0,0,0,681.557,437v.242Z" transform="translate(-534.363 -425.091)" fill="#fff"/>
      <path id="路径_7585" data-name="路径 7585" d="M699.6,430.668a5.226,5.226,0,0,1,3.865,1.36,4.936,4.936,0,0,1,1.361,3.65v9.78H703v-9.321a6.372,6.372,0,0,0-.162-1.468,3.025,3.025,0,0,0-.579-1.212,2.768,2.768,0,0,0-1.131-.822,4.71,4.71,0,0,0-1.791-.3,4.208,4.208,0,0,0-2.99,1.213,4.24,4.24,0,0,0-.848,1.184,2.968,2.968,0,0,0-.311,1.294v9.428h-1.832V430.937h1.8v2.02a4.664,4.664,0,0,1,.646-.821,4.306,4.306,0,0,1,.971-.74,5.727,5.727,0,0,1,1.265-.526A5.656,5.656,0,0,1,699.6,430.668Z" transform="translate(-532.638 -425.091)" fill="#fff"/>
      <path id="路径_7586" data-name="路径 7586" d="M712.681,430.668a9.018,9.018,0,0,1,2.694.363,6.706,6.706,0,0,1,2.074,1.065l-.835,1.427a6.61,6.61,0,0,0-1.966-.956,7.508,7.508,0,0,0-1.967-.256,3.805,3.805,0,0,0-3.044,1.281,5.287,5.287,0,0,0-1.105,3.569v1.858a5.426,5.426,0,0,0,1.132,3.691A3.868,3.868,0,0,0,712.735,444a6.427,6.427,0,0,0,2.492-.417,8.224,8.224,0,0,0,1.764-1.011l.862,1.454q-.4.3-.889.594a6.459,6.459,0,0,1-1.1.525,8.734,8.734,0,0,1-1.4.376,9.509,9.509,0,0,1-1.751.149,5.719,5.719,0,0,1-4.446-1.738,7.024,7.024,0,0,1-1.588-4.916v-1.8a8.247,8.247,0,0,1,.444-2.815,5.8,5.8,0,0,1,1.226-2.047,5.138,5.138,0,0,1,1.886-1.252A6.691,6.691,0,0,1,712.681,430.668Z" transform="translate(-530.952 -425.091)" fill="#fff"/>
      <path id="路径_7587" data-name="路径 7587" d="M729.907,444.029a9.97,9.97,0,0,1-2.155,1.131,8.5,8.5,0,0,1-3.126.513,5.873,5.873,0,0,1-4.525-1.738,6.945,6.945,0,0,1-1.617-4.916v-1.8a6.887,6.887,0,0,1,1.576-4.822,5.566,5.566,0,0,1,4.324-1.724,5.386,5.386,0,0,1,4.351,1.764,7.242,7.242,0,0,1,1.5,4.835v1.509h-9.914v.242a5.443,5.443,0,0,0,1.159,3.732,4.027,4.027,0,0,0,3.178,1.306,7.007,7.007,0,0,0,2.559-.43,8.46,8.46,0,0,0,1.886-1Zm-1.508-6.789V437a5.2,5.2,0,0,0-1.051-3.5,4.2,4.2,0,0,0-5.966.067A5.2,5.2,0,0,0,720.317,437v.242Z" transform="translate(-529.457 -425.091)" fill="#fff"/>
      <path id="路径_7588" data-name="路径 7588" d="M738.117,445.979V426.555h12.5v2.91h-9.051v5.549h8.486v2.909h-8.486v8.055Z" transform="translate(-526.972 -425.612)" fill="#2b3990"/>
      <path id="路径_7589" data-name="路径 7589" d="M762.81,444.029a9.94,9.94,0,0,1-2.155,1.131,8.49,8.49,0,0,1-3.124.513A5.873,5.873,0,0,1,753,443.935a6.943,6.943,0,0,1-1.616-4.916v-1.8a6.887,6.887,0,0,1,1.575-4.822,5.567,5.567,0,0,1,4.324-1.724,5.387,5.387,0,0,1,4.351,1.764,7.243,7.243,0,0,1,1.495,4.835v1.509h-9.913v.242a5.443,5.443,0,0,0,1.158,3.732,4.026,4.026,0,0,0,3.178,1.306,7.013,7.013,0,0,0,2.559-.43,8.49,8.49,0,0,0,1.886-1Zm-1.508-6.789V437a5.2,5.2,0,0,0-1.05-3.5,4.2,4.2,0,0,0-5.967.067A5.2,5.2,0,0,0,753.221,437v.242Z" transform="translate(-525.292 -425.091)" fill="#fff"/>
      <path id="路径_7590" data-name="路径 7590" d="M769.721,444.029a4.386,4.386,0,0,0,2.7-.7,2.036,2.036,0,0,0,.915-1.643v-.269a1.845,1.845,0,0,0-.9-1.67,9.306,9.306,0,0,0-3-.971,15.713,15.713,0,0,1-1.994-.512,5.392,5.392,0,0,1-1.51-.755,3.389,3.389,0,0,1-.969-1.091,3.106,3.106,0,0,1-.35-1.522v-.377a3.5,3.5,0,0,1,.324-1.482,3.405,3.405,0,0,1,.97-1.226,4.894,4.894,0,0,1,1.629-.836,7.85,7.85,0,0,1,2.331-.309,8.876,8.876,0,0,1,2.882.417,7.475,7.475,0,0,1,2.1,1.092L774,433.551a7.861,7.861,0,0,0-1.858-.943,7.284,7.284,0,0,0-2.344-.324,4.064,4.064,0,0,0-2.506.66,1.962,1.962,0,0,0-.862,1.6v.3a1.645,1.645,0,0,0,.957,1.483,8.872,8.872,0,0,0,2.68.861,9.246,9.246,0,0,1,3.894,1.455,3.227,3.227,0,0,1,1.2,2.694v.4a3.214,3.214,0,0,1-.4,1.588,3.9,3.9,0,0,1-1.118,1.254,5.343,5.343,0,0,1-1.684.807,7.544,7.544,0,0,1-2.128.284,9.809,9.809,0,0,1-3.165-.472,8.791,8.791,0,0,1-2.412-1.226l.889-1.453a9.857,9.857,0,0,0,2.142,1.09A7.039,7.039,0,0,0,769.721,444.029Z" transform="translate(-523.663 -425.091)" fill="#fff"/>
      <path id="路径_7591" data-name="路径 7591" d="M778.137,432.89h-2.478v-1.563h2.478v-3.745h1.832v3.745h4.015v1.563h-4.015v8.836a3.417,3.417,0,0,0,.472,2.074,1.9,1.9,0,0,0,1.576.592,7.622,7.622,0,0,0,2.047-.268l.27,1.508a5.324,5.324,0,0,1-1.145.256,9.967,9.967,0,0,1-1.306.095,5.73,5.73,0,0,1-1.657-.215,2.617,2.617,0,0,1-1.171-.7,3.076,3.076,0,0,1-.689-1.281,7.338,7.338,0,0,1-.228-1.979Z" transform="translate(-522.219 -425.482)" fill="#fff"/>
      <path id="路径_7592" data-name="路径 7592" d="M786.132,426.627h1.993v2.047h-1.993Zm.08,4.822h1.832v14.521h-1.832Z" transform="translate(-520.893 -425.603)" fill="#fff"/>
      <path id="路径_7593" data-name="路径 7593" d="M795.529,445.428l-5.307-14.521h1.967l4.39,12.635,4.31-12.635H802.8l-5.226,14.521Z" transform="translate(-520.376 -425.061)" fill="#fff"/>
      <path id="路径_7594" data-name="路径 7594" d="M807.483,445.673a5.007,5.007,0,0,1-3.368-1.1,3.794,3.794,0,0,1-1.293-3.044v-.594a3.613,3.613,0,0,1,1.293-2.882,5.751,5.751,0,0,1,3.825-1.105h4.1V435.6a3.243,3.243,0,0,0-.875-2.438,3.558,3.558,0,0,0-2.573-.849,6.2,6.2,0,0,0-2.262.418,9.878,9.878,0,0,0-2.021,1.064l-.889-1.4a12.2,12.2,0,0,1,2.277-1.212,7.687,7.687,0,0,1,2.922-.512,5.633,5.633,0,0,1,3.838,1.212,4.3,4.3,0,0,1,1.388,3.42v10.157h-1.779V443.68h-.026a3.231,3.231,0,0,1-.633.713,5.036,5.036,0,0,1-.984.659A6.473,6.473,0,0,1,807.483,445.673Zm4.553-7.192h-4.067a3.742,3.742,0,0,0-2.533.7,2.344,2.344,0,0,0-.782,1.832v.431a2.484,2.484,0,0,0,.27,1.2,2.431,2.431,0,0,0,.714.821,2.962,2.962,0,0,0,1,.471,4.267,4.267,0,0,0,1.117.149,5.287,5.287,0,0,0,1.563-.215,5.735,5.735,0,0,0,1.346-.62,3.483,3.483,0,0,0,.984-.929,2.348,2.348,0,0,0,.391-1.388Z" transform="translate(-518.781 -425.091)" fill="#fff"/>
      <path id="路径_7595" data-name="路径 7595" d="M816.213,425.718h1.832v20.367h-1.832Z" transform="translate(-517.085 -425.718)" fill="#fff"/>
    </g>
  </g>
</svg>
