<svg xmlns="http://www.w3.org/2000/svg" width="265.842" height="195.576" viewBox="0 0 265.842 195.576">
  <g id="photo-camera_1_" data-name="photo-camera (1)" transform="translate(10)">
    <g id="组_1267" data-name="组 1267" transform="translate(-10 0)">
      <g id="组_1266" data-name="组 1266">
        <path id="路径_8960" data-name="路径 8960" d="M-10,209.672V106.089c0-16.432,14.3-29.784,31.89-29.784H69.631l.524-2.054c4.242-17.068,20.318-29,39.117-29h36.341c18.8,0,34.875,11.933,39.117,29l.524,2.054h38.7c17.595,0,31.89,13.351,31.89,29.784V209.672c0,17.166-14.976,31.153-33.357,31.153H23.461C4.976,240.874-10,226.887-10,209.672Zm17.961,0c0,7.923,6.912,14.378,15.4,14.378H222.433c8.483,0,15.4-6.456,15.4-14.378V106.089c0-7.14-6.231-13.009-13.929-13.009H178.08a8.855,8.855,0,0,1-8.745-6.5l-2.147-8.51c-2.356-9.439-11.259-16.041-21.627-16.041H109.219c-10.368,0-19.27,6.6-21.627,16.041l-2.147,8.51a8.855,8.855,0,0,1-8.745,6.5H21.838c-7.645,0-13.929,5.82-13.929,13.009V209.672Z" transform="translate(10 -45.25)" fill="#eaf8fc"/>
        <path id="路径_8961" data-name="路径 8961" d="M191.04,171.55a51.84,51.84,0,1,1-51.84,51.84A51.9,51.9,0,0,1,191.04,171.55Zm0,86.857a35.066,35.066,0,1,0-35.066-35.066A35.1,35.1,0,0,0,191.04,258.407Z" transform="translate(-53.384 -109.782)" fill="#eaf8fc"/>
        <path id="路径_8962" data-name="路径 8962" d="M72.112,171.55h.293a8.387,8.387,0,0,1,0,16.775h-.293a8.387,8.387,0,1,1,0-16.775Z" transform="translate(153.92 -109.782)" fill="#eaf8fc"/>
      </g>
    </g>
  </g>
</svg>
