<svg id="组_768" data-name="组 768" xmlns="http://www.w3.org/2000/svg" width="38" height="38" viewBox="0 0 38 38">
  <path id="路径_8918" data-name="路径 8918" d="M1.113,38H36.887A1.113,1.113,0,0,0,38,36.887V32.039a3.206,3.206,0,0,0-.7-2L31.913,23.32a2.319,2.319,0,0,0-3.6-.022l-2.032,2.474-3.616-5.187c-.013-.019-.026-.037-.041-.055a4.6,4.6,0,0,0-2.509-1.616V12.929h4.41v2.127a1.113,1.113,0,0,0,1.113,1.113H34.9a1.114,1.114,0,0,0,.787-1.9l-2.762-2.762,2.954-2.954a1.114,1.114,0,0,0-.787-1.9H27.947V4.524a1.113,1.113,0,0,0-1.113-1.113h-6.72v-2.3a1.113,1.113,0,1,0-2.227,0v17.8a4.6,4.6,0,0,0-2.51,1.617c-.014.018-.028.036-.041.055L11.72,25.772,9.689,23.3a2.319,2.319,0,0,0-3.6.022L.7,30.041a3.207,3.207,0,0,0-.7,2v4.847A1.113,1.113,0,0,0,1.113,38ZM26.749,12.928a1.118,1.118,0,0,0,1.2-1.113V8.878H32.4l-1.841,1.84a1.114,1.114,0,0,0,0,1.574l1.649,1.649H26.749ZM20.113,5.638H25.72V10.7H20.113Zm9.919,19.074a.092.092,0,0,1,.143,0l5.385,6.721a.973.973,0,0,1,.213.606v3.734H33.252L27.6,27.67ZM17.141,21.889a2.4,2.4,0,0,1,3.717,0l9.679,13.884H27.289l-3.521-5.345a1.113,1.113,0,0,0-1.859,1.225l2.714,4.12H13.377l2.714-4.12a1.113,1.113,0,0,0-1.859-1.225l-3.521,5.345H7.462ZM2.227,32.039a.973.973,0,0,1,.213-.606l5.385-6.721a.092.092,0,0,1,.143,0L10.4,27.67l-5.649,8.1H2.227Z" transform="translate(0)" fill="#3984ee"/>
</svg>
