<svg xmlns="http://www.w3.org/2000/svg" width="39.357" height="31.531" viewBox="0 0 39.357 31.531">
  <g id="组_809" data-name="组 809" transform="translate(-20.107 -68.484)">
    <path id="路径_8909" data-name="路径 8909" d="M58.255,131.153H21.317a.56.56,0,0,1-.56-.56v-26.3a.56.56,0,0,1,.56-.56h3.918a.56.56,0,1,1,0,1.119H21.876v25.185H57.695V104.848H54.337a.56.56,0,1,1,0-1.119h3.918a.56.56,0,0,1,.56.56v26.3A.56.56,0,0,1,58.255,131.153Z" transform="translate(0 -31.797)" fill="#3984ee" stroke="#3984ee" stroke-width="1.3"/>
    <path id="路径_8910" data-name="路径 8910" d="M84.3,99.356a.56.56,0,0,1-.56-.56,3.922,3.922,0,0,0-3.918-3.918H69.749a.56.56,0,0,1-.56-.56V69.694a.56.56,0,0,1,.56-.56H79.823a5.043,5.043,0,0,1,5.037,5.037.56.56,0,1,1-1.119,0,3.922,3.922,0,0,0-3.918-3.918H70.308V93.759h9.514A5.043,5.043,0,0,1,84.86,98.8.56.56,0,0,1,84.3,99.356Z" transform="translate(-44.514)" fill="#3984ee" stroke="#3984ee" stroke-width="1.3"/>
    <path id="路径_8911" data-name="路径 8911" d="M249.641,99.365a.56.56,0,0,1-.56-.56V74.171a5.043,5.043,0,0,1,5.037-5.037h10.074a.56.56,0,0,1,.56.56V94.319a.56.56,0,0,1-.56.56H254.118A3.922,3.922,0,0,0,250.2,98.8v.01A.56.56,0,0,1,249.641,99.365Zm4.477-29.112A3.922,3.922,0,0,0,250.2,74.17V95.634a5.03,5.03,0,0,1,3.918-1.874h9.514V70.253Z" transform="translate(-209.855)" fill="#3984ee" stroke="#3984ee" stroke-width="1.3"/>
    <path id="路径_8912" data-name="路径 8912" d="M295.53,162.33h-7.835a.56.56,0,1,1,0-1.119h7.835a.56.56,0,1,1,0,1.119Z" transform="translate(-244.831 -84.629)" fill="#3984ee" stroke="#3984ee" stroke-width="1.3"/>
    <path id="路径_8913" data-name="路径 8913" d="M295.53,230.461h-7.835a.56.56,0,0,1,0-1.119h7.835a.56.56,0,0,1,0,1.119Z" transform="translate(-244.831 -147.249)" fill="#3984ee" stroke="#3984ee" stroke-width="1.3"/>
    <path id="路径_8914" data-name="路径 8914" d="M295.53,298.577h-7.835a.56.56,0,1,1,0-1.119h7.835a.56.56,0,1,1,0,1.119Z" transform="translate(-244.831 -209.855)" fill="#3984ee" stroke="#3984ee" stroke-width="1.3"/>
    <path id="路径_8915" data-name="路径 8915" d="M122.557,162.33h-7.835a.56.56,0,1,1,0-1.119h7.835a.56.56,0,0,1,0,1.119Z" transform="translate(-85.85 -84.629)" fill="#3984ee" stroke="#3984ee" stroke-width="1.3"/>
    <path id="路径_8916" data-name="路径 8916" d="M122.557,230.461h-7.835a.56.56,0,0,1,0-1.119h7.835a.56.56,0,0,1,0,1.119Z" transform="translate(-85.85 -147.249)" fill="#3984ee" stroke="#3984ee" stroke-width="1.3"/>
    <path id="路径_8917" data-name="路径 8917" d="M122.557,298.577h-7.835a.56.56,0,1,1,0-1.119h7.835a.56.56,0,0,1,0,1.119Z" transform="translate(-85.85 -209.855)" fill="#3984ee" stroke="#3984ee" stroke-width="1.3"/>
  </g>
</svg>
