<svg id="组_35" data-name="组 35" xmlns="http://www.w3.org/2000/svg" width="231.978" height="46.396" viewBox="0 0 231.978 46.396">
  <path id="路径_38" data-name="路径 38" d="M571.189,1229.783c-5.689,0-10.315-3.569-10.315-7.946v-30.5c0-4.385,4.626-7.951,10.315-7.951s10.316,3.557,10.316,7.936v30.513c0,4.377-4.629,7.946-10.316,7.946m0-43.564c-4.031,0-7.435,2.335-7.435,5.119v30.5c0,2.774,3.4,5.119,7.435,5.119s7.439-2.345,7.439-5.119v-30.513c0-2.769-3.41-5.1-7.439-5.1" transform="translate(-560.875 -1183.387)" fill="#fff"/>
  <path id="路径_39" data-name="路径 39" d="M588.383,1229.783c-5.679,0-10.3-3.569-10.3-7.946V1213.6a1.408,1.408,0,0,1,.595-1.145l-.11-.129a1.391,1.391,0,0,1,.059-1.88l.571-.36.2-.587.445-.46.07-.66.356-.558-.086-.645.215-.6-.215-.6.086-.629-.356-.567-.07-.639-.445-.453-.2-.6-.571-.367a1.4,1.4,0,0,1-.059-1.884l.11-.131a1.412,1.412,0,0,1-.595-1.148v-8.215c0-4.385,4.621-7.951,10.3-7.951s10.31,3.557,10.31,7.936v30.513c0,4.377-4.629,7.946-10.31,7.946m-7.417-12.284v4.338c0,2.774,3.4,5.119,7.417,5.119,4.037,0,7.431-2.345,7.431-5.119v-9.992l-.031.135a1.381,1.381,0,0,1-.632.884,1.43,1.43,0,0,1-1.091.194l-.2-.039.193.086a1.411,1.411,0,0,1,.745.79,1.4,1.4,0,0,1-.045,1.087l-.662,1.4a1.441,1.441,0,0,1-1.912.685l-.257-.116.223.163a1.409,1.409,0,0,1,.278,1.979l-.948,1.211a1.42,1.42,0,0,1-.957.55,1.455,1.455,0,0,1-1.066-.273l-.188-.145.151.177a1.383,1.383,0,0,1-.182,1.993l-1.192.987a1.513,1.513,0,0,1-1.053.326,1.38,1.38,0,0,1-.972-.5Zm13.739-8.754.314.071a1.433,1.433,0,0,1,.8.471v-.776a1.477,1.477,0,0,1-.8.235Zm.014-4.335h.3a1.431,1.431,0,0,1,.8.232v-.784a1.413,1.413,0,0,1-.8.484Zm-.34-4.356a1.468,1.468,0,0,1,.774.229,1.39,1.39,0,0,1,.632.887l.031.136v-9.982c0-2.769-3.394-5.1-7.431-5.1-4.093,0-7.417,2.3-7.417,5.119v4.325l5.047-5.914a1.444,1.444,0,0,1,2.022-.169l1.195.97a1.439,1.439,0,0,1,.517.963,1.388,1.388,0,0,1-.335,1.029l-.151.186.188-.147a1.47,1.47,0,0,1,2.018.264l.937,1.194a1.4,1.4,0,0,1-.262,1.991l-.327.247.361-.166a1.438,1.438,0,0,1,1.9.674l.667,1.368a1.4,1.4,0,0,1,.054,1.093,1.446,1.446,0,0,1-.747.8l-.211.095.221-.053Z" transform="translate(-555.905 -1183.387)" fill="#fff"/>
  <g id="组_34" data-name="组 34" transform="translate(1.44 1.414)">
    <path id="路径_40" data-name="路径 40" d="M777.456,1212.546c.842.347.633,1.405-.367,1.484-1.416.112-9.331.067-10.185.012-1.723-.109-1.879-.777-1.879-2.061v-2.387a1.218,1.218,0,0,0-.17-.732,1.414,1.414,0,0,0-.582-.253c-.64-.172-1.324-.262-1.316-.794,0-.182.093-.445.773-.446.724,0,1.938.041,2.683.119l1.911.2c.036.7-.19.675-.19,1.576v2.812c0,.456.273.457,1.329.469.88.011,2.555.051,3.586,0a1.848,1.848,0,0,0,1.144-.472,11.158,11.158,0,0,1,3.261.476Zm-16.6-7.24c-.793-.271-1.142-.557-1.139-1.666l.011-5.636c-.068-1.065.057-1.479-.625-1.659-1.105-.292-1-1.375.167-1.375,1.609,0,4.892.462,6.7.11a2.162,2.162,0,0,0,1.069-.474c1.126.043,3.7.079,3.548,1.365-.127,1.094-2.194.734-3.095.706l-4.814.034v5.036c0,1.436,0,1.792,1.52,1.758a39.964,39.964,0,0,0,5.064-.656,20.584,20.584,0,0,1,2.623-.52c.9,0,1.074.766.246,1.159a40.359,40.359,0,0,1-6.956,1.724,11.093,11.093,0,0,1-4.315.095Zm-80.233-3.6a2.419,2.419,0,1,0-4.832,0,2.419,2.419,0,1,0,4.832,0Zm3.014,0c0,4.63-8.066,5.542-10.39,1.73-2.013-3.3,2.21-6.792,6.9-5.506,1.969.539,3.489,1.964,3.489,3.776Zm-4.027-5.559c.02-.906.315-1.937.315-2.522a5.794,5.794,0,0,1-.647-.069,26.88,26.88,0,0,0-2.752-.288c-1.1-.034-1.628.9-.431,1.145.865.176.707,1.108.687,1.761a35.272,35.272,0,0,1-4.915-.241c-1.949-.263-2.029,1.1.955,1.778a1.874,1.874,0,0,0,1.461-.071c.864-.339,5.23-.194,6.857-.14,1.422.046,4.314.455,4.511-.549.217-1.108-2.589-1.313-3.411-1.313a3.849,3.849,0,0,1-2.629.51Zm29.227,14.283c0-3.763-5.675-3.718-5.675,0,0,3.735,5.675,3.755,5.675,0Zm2.934,0c0,4.848-8.608,5.809-11.088,1.748-1.325-2.171.012-4.465,2.375-5.505,3.689-1.625,8.713.229,8.713,3.757Zm-10.654-8.86a13.886,13.886,0,0,1,3.784,3.363c.765,1,2.386.417,2.386-1.153,0-.983-3.485-2.4-5.109-3.1a13.174,13.174,0,0,0,2.4-2.841c.63-1.063.4-1.553-.315-1.859-.381-.163-.7-.246-1.05-.377a5.086,5.086,0,0,1-1.933.286l.285-2.09-.643-.132a10.75,10.75,0,0,0-2.791-.323c-1.543.1-1.056.99-.325,1.137.763.156.65.857.634,1.425-.436,0-.854-.014-1.291-.044a16.513,16.513,0,0,0-2.711-.085c-.739.2-.735.52-.385.842a5.528,5.528,0,0,0,2.868,1.088c.767-.106-.1-.357,2.7-.443,2.435-.076,2.12.1.164,2.352a20.161,20.161,0,0,1-6.656,5.022c-1.389.668-.13,1.418,1.188.943a18.905,18.905,0,0,0,6.8-4.01Zm25.1-2.062a2.937,2.937,0,1,0-5.86,0,2.937,2.937,0,1,0,5.86,0Zm-4.467-4.544c-.285-1.047-.03-1.578,1.477-1.528,1.41.048,1.715.481,1.539,1.527,6.733,1.314,5.4,9.418-1.531,9.418-6.833,0-8.152-8.107-1.485-9.417Zm5.072,13.435c-2.352.311-4.7.476-7.175.648a9.692,9.692,0,0,1-1.071.341c-.511,0-4.646-1.321-2.623-1.953a13.949,13.949,0,0,1,2.825.115,73.847,73.847,0,0,0,11.644-1c1.07-.154,1.262.9.52,1.106a35.2,35.2,0,0,1-4.119.746Zm16.939-4.641a19.366,19.366,0,0,1-5.964,5.623c-1.2.692-2.549-.25-1.268-1.033a17.546,17.546,0,0,0,5.186-5.906c.492-.843,2.469-4.143,2.02-4.94-.233-.414-2.848-.159-3.031-.135-.947.123-.641,1.142-2.943-.624-.95-.728-.667-1.631.918-1.437a24.535,24.535,0,0,0,5.719.168c.2-.018.6-.363.955-.344a2.335,2.335,0,0,1,1.543.739,1.706,1.706,0,0,1,.492,1.239,6.724,6.724,0,0,1-.742,1.969,25.418,25.418,0,0,1-2,3.377c1.277,1.144,3.324,2.717,3.851,3.91.2.45.524,2.29-.028,2.813a1.186,1.186,0,0,1-1.792-.24,22.46,22.46,0,0,0-2.919-5.178Zm-130.2-1.728a2.5,2.5,0,1,0-4.991,0,2.5,2.5,0,1,0,4.991,0Zm3.014,0c0,4.625-8.078,5.71-10.535,1.75-2.07-3.336,2.315-6.911,6.983-5.576,1.995.57,3.551,1.97,3.552,3.826Zm-6.851,6.4c.128-.349,1-.493,1.6-.447l3.646.319c0,.886-.556.483-.185,3.719.047.4.262.457,1.349.469a25.4,25.4,0,0,0,4.037-.067,1.892,1.892,0,0,0,.72-.385,10.627,10.627,0,0,1,3.174.454c.819.347.617,1.405-.356,1.484a92.416,92.416,0,0,1-10.134.012c-1.7-.108-1.893-.757-1.823-1.553l.038-2.165c-.091-.749-.122-1.005-1.4-1.218-.258-.044-.8-.27-.666-.623Zm2.744-12.025a14.5,14.5,0,0,1,.261-2.3l.054-.446c-1.136-.045-2.247-.323-3.4-.357-1.1-.034-1.628.9-.432,1.146.921.188.713,1.275.689,1.98l-2.732-.053a19.974,19.974,0,0,0-3.026-.139c-1.948.552,1.339,1.72,1.819,1.8a2.145,2.145,0,0,0,1.767-.192,64.969,64.969,0,0,1,6.833-.036c1.345.042,4.007.441,4.206-.581.235-1.192-2.561-1.336-3.411-1.336-.709.609-1.636.5-2.628.51Zm32-.414c-.168.6-1.516,4.813-2.835,5.2-.47.138-1.557-.021-1.4-.6.06-.225,1.481-4.211,1.112-4.8a8.258,8.258,0,0,0-2.082-.148c-1.961-.026-5.371.141-5.91.191a9.457,9.457,0,0,1-1.074.321c-.894,0-4.7-1.5-2.484-2.048a19.226,19.226,0,0,1,2.088.088,89.215,89.215,0,0,0,9.41.008c.21-.032,1.022-.291,1.332-.344a1.685,1.685,0,0,1,1.885,1.759l-.044.372Zm7.558,11.879.823-.017v-5.263c0-.957-.614-.932-1.057-1s-.763-.124-.625-.565c.252-.8,2.306-.5,3.6-.306a7.841,7.841,0,0,0,1.19.121l-.305,1.568v5.288c2.209-.179,4.621-.279,6.753-.622,1.167-.187,1.237.98.289,1.185a56.448,56.448,0,0,1-8.605.971c-.673.042-1.352.084-2.021.13a10.4,10.4,0,0,1-1.1.341c-.586,0-4.641-1.285-2.65-1.953a24.251,24.251,0,0,1,3.7.126Zm6.649-1.67c1.269-.388,1.951-4.362,2.415-7.072.156-.908.286-1.675.4-2.108a1.421,1.421,0,0,0-.926-1.825,2.838,2.838,0,0,0-1.131-.287,2.963,2.963,0,0,0-.791.239l-5.265.087-2.752-.185a4.518,4.518,0,0,0-1.022-.05c-1.463.309-.33,1.158.9,1.672a4.427,4.427,0,0,0,1.689.413,2.027,2.027,0,0,1,1.076-.336,34.24,34.24,0,0,1,4.244-.076c.806.019.966-.058.918.558a34.774,34.774,0,0,1-.946,6.74c-.173.6-.507,1.489-.323,1.846a1.307,1.307,0,0,0,1.513.384Zm95.32-4.375V1214h2.724v-18.445c0-.613.343-1.494.342-2.088a4.651,4.651,0,0,1-.871-.093c-1.274-.237-3.787-.787-4.126.074-.27.688,1.459.644,1.794,1.214a2.083,2.083,0,0,1,.151.9l-.012,4.861h-2.121v-4.2c0-.613.337-1.446.337-2.04a6.035,6.035,0,0,1-.793-.092c-.772-.127-2.039-.384-2.754-.414-.512-.021-1.944.129-1.371.812.593.7,1.856-.15,1.856,1.689v15.908h2.728l0-10.265Zm-19.5-6.269c0-.7.341-1.38.34-2.088a2.926,2.926,0,0,1-.512-.052c-1.223-.211-3.2-.6-4.225-.294-.412.123-.663.365-.352.7.638.69,1.971-.1,1.971,1.686V1214H734.5v-18.445Zm-47.623,18.432h2.771v-6.627l-9.233.1c-.939-.005-3.42-.237-3.883-.106-1.527.432.176,1.281,1.489,1.667a4.03,4.03,0,0,0,1.162.2,2.431,2.431,0,0,1,1.195-.305c1.643-.144,4.938-.031,6.5.016v5.05Zm-20.235-12.528v-5.875c0-.6.329-1.5.329-2.083a32.765,32.765,0,0,0-3.644-.491,3.584,3.584,0,0,0-1.094.112c-.42.125-.659.37-.353.7.639.691,1.972-.1,1.972,1.686V1214h2.79V1202.92h1.276c1.091,0,3.064.27,3.177-.641.149-1.2-2.418-1.285-3.364-1.285a1.609,1.609,0,0,1-1.089.463Zm-18.351,1.549a.78.78,0,0,0,.466-1.088c-.368-.742-3.082-.872-3.656-.872a2.412,2.412,0,0,1-1.185.515c-4.324.091-8.332.07-12.632-.007-.921-.016-4.1-.312-4.539-.2-1.02.264-.7.76-.021,1.16a7.262,7.262,0,0,0,3.245.91,2.138,2.138,0,0,1,1.033-.4l4.613-.079v3.736l-.82-.009-5.445-.119c-2.016.571,1.594,1.868,2.51,1.868a9.409,9.409,0,0,0,.94-.257,73.444,73.444,0,0,1,7.765-.018V1214H643.5l0-7.476c-.465.024-.931.117-1.4.117l-3.638-.007v-3.69c2.217,0,4.486,0,6.55.121a15.1,15.1,0,0,0,3.273-.056Zm60.524,2.51h2.776v-3.7h1.323c1.091,0,3.065.271,3.177-.64.048-.381-.208-.659-.61-.856a6.851,6.851,0,0,0-2.866-.443,2.153,2.153,0,0,1-1.025.469v-4.8c0-.6.343-1.476.343-2.054a32.4,32.4,0,0,0-3.644-.492,3.594,3.594,0,0,0-1.094.112c-.419.125-.659.37-.352.7.639.69,1.971-.1,1.971,1.686v10.008Zm-21.947.837v-10.845c0-1.786-1.333-1-1.971-1.686-.307-.332-.067-.578.352-.7a3.586,3.586,0,0,1,1.094-.112,32.747,32.747,0,0,1,3.643.491c0,.579-.342,1.459-.342,2.055v4.8a2.234,2.234,0,0,0,1.025-.47c.946,0,3.625.1,3.476,1.3-.112.911-2.087.64-3.177.64h-1.324v4.534Zm86.263,3.662h2.789V1201.8a26.721,26.721,0,0,0,3.361-.078c1.224-.122,1.995-.95.535-1.5a7.314,7.314,0,0,0-2.852-.35,2.384,2.384,0,0,1-1.043.522v-4.833c0-.6.33-1.493.329-2.072a32.541,32.541,0,0,0-3.643-.491c-.441-.018-2.1.107-1.446.815.638.69,1.972-.1,1.972,1.686v14.507Zm-153.407,0H622.5V1200.7h1.323c1.091,0,3.065.271,3.177-.64.149-1.2-2.53-1.3-3.476-1.3a2.034,2.034,0,0,1-1.024.47v-3.73c0-.6.342-1.477.342-2.054a32.4,32.4,0,0,0-3.644-.492c-.488-.085-2.1.106-1.446.814.639.692,1.971-.1,1.971,1.686Z" transform="translate(-550.072 -1182.044)" fill="#1a1818" fill-rule="evenodd"/>
    <path id="路径_41" data-name="路径 41" d="M561.992,1221.516v-30.493c0-3.608,3.97-6.538,8.867-6.538s8.867,2.926,8.867,6.535v30.5c0,3.608-3.971,6.531-8.867,6.531S561.992,1225.124,561.992,1221.516Z" transform="translate(-561.992 -1184.484)" fill="#b80e27" fill-rule="evenodd"/>
    <path id="路径_42" data-name="路径 42" d="M579.193,1221.516v-8.223l7.6,8.9,1.189-.981-8.623-10.1L590,1219.136l.945-1.21L580.3,1209.9l12.159,5.571.656-1.383-12.158-5.571,13.1,2.854.336-1.49-13.1-2.853H594.71V1205.5H581.294l13.1-2.854-.336-1.489-13.1,2.853,12.158-5.571-.656-1.383L580.3,1202.63l10.643-8.024L590,1193.4l-10.643,8.025,8.623-10.1-1.189-.981-7.6,8.9v-8.216c0-3.608,3.969-6.538,8.866-6.538s8.867,2.926,8.867,6.535v30.5c0,3.608-3.971,6.531-8.867,6.531S579.193,1225.124,579.193,1221.516Z" transform="translate(-557.025 -1184.484)" fill="#0061b0" fill-rule="evenodd"/>
  </g>
</svg>
