<svg xmlns="http://www.w3.org/2000/svg" width="33.769" height="33.914" viewBox="0 0 33.769 33.914">
  <g id="组_772" data-name="组 772" transform="translate(-1179.016 -890.719)">
    <path id="路径_8920" data-name="路径 8920" d="M26.7,0H1.085A1.085,1.085,0,0,0,0,1.085V26.7a1.085,1.085,0,0,0,1.085,1.085H26.7A1.085,1.085,0,0,0,27.787,26.7V1.085A1.085,1.085,0,0,0,26.7,0ZM25.616,25.616H2.171V18.9l7.6-7.6,12.041,12.04a1.085,1.085,0,0,0,1.535-1.535l-5.636-5.637,2.7-2.7,5.21,5.21Zm0-10-4.443-4.442a1.085,1.085,0,0,0-1.535,0l-3.466,3.466L10.536,9A1.085,1.085,0,0,0,9,9l-6.831,6.83V2.171H25.616Zm-9.552-5.565A2.962,2.962,0,1,0,13.1,7.087,2.966,2.966,0,0,0,16.064,10.049Zm0-3.754a.791.791,0,1,1-.791.791A.792.792,0,0,1,16.064,6.3Z" transform="translate(1184.998 896.845)" fill="#fff"/>
    <path id="路径_8921" data-name="路径 8921" d="M1176.516,915.186V891.339h23.724" transform="translate(4 0.88)" fill="none" stroke="#fff" stroke-linecap="round" stroke-width="3"/>
  </g>
</svg>
