<svg xmlns="http://www.w3.org/2000/svg" width="234.041" height="234.041" viewBox="0 0 234.041 234.041">
  <path id="goal_1_" data-name="goal (1)" d="M231.961,216.049,150.937,100.586a11.392,11.392,0,0,0-2.5-2.572V73.138h57.139A6.857,6.857,0,0,0,211.4,62.659L199.433,43.426,211.4,24.192a6.857,6.857,0,0,0-5.822-10.479H148.439V6.857a6.857,6.857,0,0,0-13.713,0V98.014a11.4,11.4,0,0,0-2.5,2.572L94.091,154.932l-14.7-20.393a11.428,11.428,0,0,0-18.54,0L2.166,215.93a11.428,11.428,0,0,0,9.27,18.111H222.607a11.427,11.427,0,0,0,9.354-17.992ZM64.955,220.328l44.107-62.854,11.3,10.53a6.857,6.857,0,0,0,9.348,0l11.87-11.06L153.453,168a6.857,6.857,0,0,0,9.348,0l11.3-10.53,44.107,62.854ZM51.2,216.049a11.443,11.443,0,0,0-1.849,4.279H15.9l54.217-75.2,15.635,21.685ZM141.582,111.13l24.568,35.011-8.024,7.476-11.873-11.061a6.856,6.856,0,0,0-9.348,0l-11.869,11.06-8.022-7.475Zm51.654-83.7-7.7,12.377a6.856,6.856,0,0,0,0,7.245l7.7,12.376h-44.8v-32Z" transform="translate(0)" fill="#faefef"/>
</svg>
