<svg xmlns="http://www.w3.org/2000/svg" width="26.864" height="42" viewBox="0 0 26.864 42">
  <g id="组_767" data-name="组 767" transform="translate(-982.733 -886.153)">
    <g id="组_766" data-name="组 766" transform="translate(982.733 886.153)">
      <g id="组_494" data-name="组 494" transform="translate(0 0)">
        <path id="路径_7097" data-name="路径 7097" d="M655.428,676.3a1.384,1.384,0,0,1-.279-.029,1.292,1.292,0,0,1-1.018-1.535,12.974,12.974,0,0,0,.237-1.941,7.129,7.129,0,0,1,1.463-4.442,28.189,28.189,0,0,1,1.938-2.146,16.873,16.873,0,0,0,2.434-2.91,10.191,10.191,0,0,0,1.41-6.289,10.512,10.512,0,0,0-5.447-7.857,11.281,11.281,0,0,0-10.558,0,10.508,10.508,0,0,0-5.448,7.857,10.2,10.2,0,0,0,1.41,6.289A16.826,16.826,0,0,0,644,666.208a28.216,28.216,0,0,1,1.939,2.147A7.131,7.131,0,0,1,647.4,672.8a12.844,12.844,0,0,0,.238,1.941,1.294,1.294,0,0,1-1.019,1.535,1.326,1.326,0,0,1-1.574-.993,15.2,15.2,0,0,1-.291-2.309,4.722,4.722,0,0,0-.921-3.043,25.806,25.806,0,0,0-1.762-1.945,19.092,19.092,0,0,1-2.793-3.375,12.749,12.749,0,0,1-1.761-7.862,13.044,13.044,0,0,1,6.864-9.887,14.07,14.07,0,0,1,13,0,13.048,13.048,0,0,1,6.864,9.887,12.743,12.743,0,0,1-1.761,7.861,19.114,19.114,0,0,1-2.792,3.375,25.616,25.616,0,0,0-1.762,1.945,4.72,4.72,0,0,0-.921,3.042,15.2,15.2,0,0,1-.291,2.309A1.319,1.319,0,0,1,655.428,676.3Z" transform="translate(-637.455 -645.268)" fill="#3984ee"/>
        <path id="路径_7098" data-name="路径 7098" d="M662.05,715.316h-8.512a2.743,2.743,0,0,1-2.74-2.739v-9.284a1.431,1.431,0,0,1,1.431-1.431h11.133a1.431,1.431,0,0,1,1.431,1.431v9.284A2.744,2.744,0,0,1,662.05,715.316Zm-8.391-2.862h8.271v-7.73H653.66Z" transform="translate(-644.35 -673.316)" fill="#3984ee"/>
        <g id="组_493" data-name="组 493" transform="translate(11.941 7.296)">
          <g id="组_492" data-name="组 492">
            <g id="组_491" data-name="组 491">
              <g id="组_490" data-name="组 490">
                <path id="路径_7099" data-name="路径 7099" d="M660.525,662.4v-2.557h2.714V662.4l-.253,8.53H660.8Zm0,10.326h2.714v2.557h-2.714Z" transform="translate(-660.525 -659.847)" fill="#3984ee"/>
              </g>
            </g>
          </g>
        </g>
      </g>
      <path id="路径_7100" data-name="路径 7100" d="M663.093,713.828h-9.861a1,1,0,1,1,0-2h9.861a1,1,0,0,1,0,2Z" transform="translate(-644.943 -677.667)" fill="#3984ee"/>
    </g>
  </g>
</svg>
