<svg xmlns="http://www.w3.org/2000/svg" width="219.033" height="282.627" viewBox="0 0 219.033 282.627">
  <g id="组_758" data-name="组 758" opacity="0.109">
    <path id="路径_7092" data-name="路径 7092" d="M662.41,667.737a7.71,7.71,0,0,1-5.472-2.27l-17.5-17.5a7.74,7.74,0,0,1,10.946-10.946l17.5,17.5a7.741,7.741,0,0,1-5.474,13.212Z" transform="translate(-604.876 -614.755)" fill="#3984ee"/>
    <path id="路径_7093" data-name="路径 7093" d="M683.888,667.738a7.742,7.742,0,0,1-5.472-13.215l17.506-17.5a7.739,7.739,0,1,1,10.943,10.946l-17.5,17.5A7.718,7.718,0,0,1,683.888,667.738Z" transform="translate(-525.106 -614.756)" fill="#3984ee"/>
    <path id="路径_7094" data-name="路径 7094" d="M694.777,673.885a7.742,7.742,0,0,1-3.226-14.779l19.348-8.875a7.74,7.74,0,0,1,6.452,14.072L698,673.178A7.728,7.728,0,0,1,694.777,673.885Z" transform="translate(-502.834 -584.536)" fill="#3984ee"/>
    <path id="路径_7095" data-name="路径 7095" d="M653.66,673.885a7.724,7.724,0,0,1-3.223-.707L631.089,664.3a7.74,7.74,0,1,1,6.449-14.072l19.352,8.875a7.742,7.742,0,0,1-3.23,14.779Z" transform="translate(-626.571 -584.536)" fill="#3984ee"/>
    <path id="路径_7096" data-name="路径 7096" d="M667.27,670.5a7.742,7.742,0,0,1-7.738-7.741V635.934a7.74,7.74,0,1,1,15.479,0v26.822A7.739,7.739,0,0,1,667.27,670.5Z" transform="translate(-559.115 -628.193)" fill="#3984ee"/>
    <path id="路径_7097" data-name="路径 7097" d="M742.379,831.14a7.885,7.885,0,0,1-1.63-.171,7.737,7.737,0,0,1-5.944-9.191,79.656,79.656,0,0,0,1.386-11.626c.564-8.338,1.146-16.963,8.54-26.606a167.436,167.436,0,0,1,11.315-12.853c5.408-5.727,10.516-11.144,14.21-17.429a62.333,62.333,0,0,0,8.232-37.665c-1.947-19-15.026-38.349-31.8-47.06-20.159-10.474-41.469-10.471-61.634,0-16.78,8.707-29.856,28.055-31.8,47.057a62.35,62.35,0,0,0,8.232,37.668c3.692,6.285,8.8,11.7,14.206,17.423A167.253,167.253,0,0,1,687,783.547c7.391,9.646,7.974,18.267,8.537,26.606a78.892,78.892,0,0,0,1.389,11.626,7.741,7.741,0,0,1-15.138,3.244,93.413,93.413,0,0,1-1.7-13.828c-.5-7.4-.829-12.3-5.377-18.227a153.322,153.322,0,0,0-10.285-11.65c-5.764-6.105-11.72-12.415-16.3-20.213a77.969,77.969,0,0,1-10.282-47.085c2.486-24.277,18.59-48.074,40.071-59.219,24.473-12.71,51.428-12.71,75.9,0,21.475,11.147,37.579,34.94,40.068,59.218A77.928,77.928,0,0,1,783.6,761.1c-4.582,7.8-10.541,14.111-16.3,20.217a152.114,152.114,0,0,0-10.288,11.65c-4.548,5.929-4.877,10.821-5.377,18.222a93.373,93.373,0,0,1-1.7,13.831A7.743,7.743,0,0,1,742.379,831.14Z" transform="translate(-604.298 -593.248)" fill="#3984ee"/>
    <path id="路径_7098" data-name="路径 7098" d="M711.659,760.053H665.62c-8.174,0-14.821-5.316-14.821-11.847V708.05c0-3.418,3.464-6.188,7.741-6.188h60.214c4.275,0,7.739,2.77,7.739,6.188v40.156C726.492,754.737,719.839,760.053,711.659,760.053Zm-45.381-12.378h44.735V714.24H666.278Z" transform="translate(-576.99 -477.426)" fill="#3984ee"/>
    <g id="组_493" data-name="组 493" transform="translate(103.442 96.435)">
      <g id="组_492" data-name="组 492">
        <g id="组_491" data-name="组 491">
          <g id="组_490" data-name="组 490">
            <path id="路径_7099" data-name="路径 7099" d="M660.525,673.678V659.847H675.2v13.832l-1.371,46.134H662Zm0,55.849H675.2v13.831H660.525Z" transform="translate(-660.525 -659.847)" fill="#3984ee"/>
          </g>
        </g>
      </g>
    </g>
  </g>
</svg>
