<svg xmlns="http://www.w3.org/2000/svg" width="22" height="14.986" viewBox="0 0 22 14.986">
  <path id="icon" d="M-5419.367-7286.917a2,2,0,0,1-1.255-1.193,7.322,7.322,0,0,1-.365-3.029,19.924,19.924,0,0,1,.575-3.848,13.462,13.462,0,0,1,1.178-3.24c1.83-3.293,3.817-2.761,6.2-2.151a16.9,16.9,0,0,0,2.405.479h.262a16.977,16.977,0,0,0,2.407-.479c2.38-.638,4.367-1.142,6.2,2.124a14.773,14.773,0,0,1,1.178,3.24,19.857,19.857,0,0,1,.575,3.85,7.173,7.173,0,0,1-.365,3.027,1.971,1.971,0,0,1-1.255,1.221,2.7,2.7,0,0,1-1.676-.185,12.3,12.3,0,0,1-3.348-2.417,5.719,5.719,0,0,0-3.845-1.195,5.721,5.721,0,0,0-3.845,1.195,12.274,12.274,0,0,1-3.348,2.417,2.817,2.817,0,0,1-1.128.256A2.075,2.075,0,0,1-5419.367-7286.917Zm13.367-3.266a10.691,10.691,0,0,0,3.034,2.2,1.777,1.777,0,0,0,1.073.132,1.041,1.041,0,0,0,.627-.663,6.184,6.184,0,0,0,.289-2.6,20.431,20.431,0,0,0-.55-3.663,12.3,12.3,0,0,0-1.1-3c-1.437-2.63-3.112-2.177-5.1-1.673a14.843,14.843,0,0,1-2.59.5h-.393a15,15,0,0,1-2.562-.5c-1.988-.531-3.664-.957-5.1,1.673a12.849,12.849,0,0,0-1.1,3,18.61,18.61,0,0,0-.549,3.663,6.319,6.319,0,0,0,.263,2.549,1.031,1.031,0,0,0,.627.663,1.6,1.6,0,0,0,1.072-.132,10.887,10.887,0,0,0,3.034-2.2,6.825,6.825,0,0,1,4.525-1.46A6.464,6.464,0,0,1-5406-7290.183Zm-10.337-2.5a1.444,1.444,0,0,1-.454-.977,1.469,1.469,0,0,1-.989-.46,1.613,1.613,0,0,1-.456-1.112,1.547,1.547,0,0,1,.456-1.112l.025-.027a1.589,1.589,0,0,1,.964-.434,1.571,1.571,0,0,1,.454-.977,1.567,1.567,0,0,1,1.095-.461,1.5,1.5,0,0,1,1.1.461l.025.028a1.544,1.544,0,0,1,.429.949,1.619,1.619,0,0,1,.962.461,1.622,1.622,0,0,1,.454,1.112,1.544,1.544,0,0,1-.454,1.112,1.407,1.407,0,0,1-.962.46,1.664,1.664,0,0,1-.454.977,1.569,1.569,0,0,1-1.1.462A1.5,1.5,0,0,1-5416.337-7292.683Zm-.724-2.983-.024.027a.55.55,0,0,0-.162.407.551.551,0,0,0,.162.379.539.539,0,0,0,.4.163h.373a.511.511,0,0,1,.509.515v.379a.555.555,0,0,0,.161.407.533.533,0,0,0,.4.163.541.541,0,0,0,.4-.163.562.562,0,0,0,.16-.407v-.354a.51.51,0,0,1,.507-.513h.374a.548.548,0,0,0,.4-.163.563.563,0,0,0,.159-.407.559.559,0,0,0-.159-.407.542.542,0,0,0-.4-.163h-.374a.512.512,0,0,1-.507-.517v-.379a.654.654,0,0,0-.135-.379l-.025-.027a.546.546,0,0,0-.4-.163.539.539,0,0,0-.4.163.556.556,0,0,0-.161.407v.379a.512.512,0,0,1-.509.517h-.373A.631.631,0,0,0-5417.061-7295.666Zm10.333,2.838a.96.96,0,0,1,.23-1.323.929.929,0,0,1,1.3.236.957.957,0,0,1-.23,1.321.924.924,0,0,1-.535.17A.928.928,0,0,1-5406.728-7292.827Zm1.854-1.785a.958.958,0,0,1,.069-1.341.925.925,0,0,1,1.32.071.957.957,0,0,1-.069,1.339.919.919,0,0,1-.625.246A.925.925,0,0,1-5404.873-7294.612Zm-3.873-.638a.942.942,0,0,1,.935-.949.943.943,0,0,1,.938.949.942.942,0,0,1-.937.949A.941.941,0,0,1-5408.746-7295.25Zm1.892-1.6a.952.952,0,0,1,.623-1.184.932.932,0,0,1,1.166.632.95.95,0,0,1-.621,1.184.886.886,0,0,1-.273.042A.938.938,0,0,1-5406.854-7296.85Z" transform="translate(5421.499 7301.332)" fill="#fff" stroke="rgba(0,0,0,0)" stroke-miterlimit="10" stroke-width="1"/>
</svg>
