<svg xmlns="http://www.w3.org/2000/svg" width="16.866" height="15" viewBox="0 0 16.866 15">
  <path id="icon" d="M-200.205,107.214a1.8,1.8,0,0,1-1.795-1.8V93.932a.718.718,0,0,1,.717-.718h12.636a.719.719,0,0,1,.718.718v1.076h1.076a.719.719,0,0,1,.718.718v9.692a1.8,1.8,0,0,1-1.795,1.8Zm-1.077-1.8a1.079,1.079,0,0,0,1.077,1.077h12.277a1.078,1.078,0,0,0,1.076-1.077V95.727h-1.076v9.154a.179.179,0,0,0,.179.179.359.359,0,0,1,.359.359.358.358,0,0,1-.359.359.9.9,0,0,1-.9-.9V93.932h-12.636Zm7.092-.353a.377.377,0,0,1-.377-.377.376.376,0,0,1,.377-.376h3.805a.377.377,0,0,1,.377.376.378.378,0,0,1-.377.377Zm-5.172,0a.377.377,0,0,1-.376-.377.376.376,0,0,1,.376-.376h3.806a.376.376,0,0,1,.376.376.377.377,0,0,1-.376.377Zm5.172-1.79a.376.376,0,0,1-.377-.377.376.376,0,0,1,.377-.376h3.805a.377.377,0,0,1,.377.376.377.377,0,0,1-.377.377Zm-5.172,0a.376.376,0,0,1-.376-.377.376.376,0,0,1,.376-.376h3.806a.376.376,0,0,1,.376.376.376.376,0,0,1-.376.377Zm0-1.643a.376.376,0,0,1-.376-.376V97.451a.376.376,0,0,1,.376-.376h3.806a.376.376,0,0,1,.376.376v3.806a.376.376,0,0,1-.376.376Zm.377-.753h3.052V97.828h-3.052Zm4.8.606a.376.376,0,0,1-.377-.377.376.376,0,0,1,.377-.376h3.805a.377.377,0,0,1,.377.376.377.377,0,0,1-.377.377Zm0-1.79a.376.376,0,0,1-.377-.377.376.376,0,0,1,.377-.376h3.805a.377.377,0,0,1,.377.376.377.377,0,0,1-.377.377Zm0-1.79a.376.376,0,0,1-.377-.377.376.376,0,0,1,.377-.376h3.805a.377.377,0,0,1,.377.376.377.377,0,0,1-.377.377Zm-5.16-1.79a.382.382,0,0,1-.389-.376.382.382,0,0,1,.389-.377h9.811a.383.383,0,0,1,.389.377.383.383,0,0,1-.389.376Z" transform="translate(202.5 -92.714)" fill="#fff" stroke="rgba(0,0,0,0)" stroke-miterlimit="10" stroke-width="1"/>
</svg>
