<svg xmlns="http://www.w3.org/2000/svg" width="235.128" height="45.396" viewBox="0 0 235.128 45.396">
  <g id="과학기술정보통신부" transform="translate(-249.77 -1154.571)">
    <g id="组_2" data-name="组 2" transform="translate(249.77 1154.571)">
      <g id="组_1" data-name="组 1">
        <path id="路径_1" data-name="路径 1" d="M285.042,1176.234a8.268,8.268,0,0,0-11.716,2.442,8.267,8.267,0,0,1-14.9-2.254h0a.525.525,0,0,0-.033-.079c0-.035-.016-.072-.021-.109a10.261,10.261,0,0,1-.423-3.247c0-7.352,7.579-15.527,18.5-15.527a20.818,20.818,0,0,1,19.229,13.163c-.026-.083-.056-.163-.082-.249a23.569,23.569,0,0,0-45.821,7.591c0,11.55,8.38,21.431,20.008,21.431,9.274,0,15.508-5.164,18.369-12.286a8.984,8.984,0,0,0-3.1-10.876" transform="translate(-249.77 -1154.571)" fill="#002c52"/>
        <path id="路径_2" data-name="路径 2" d="M294.668,1170.669a20.743,20.743,0,0,0-19.376-13.616c-10.921,0-18.5,8.175-18.5,15.527a10.253,10.253,0,0,0,.424,3.247,7.109,7.109,0,0,1-.218-1.664c0-7.649,7.7-12.942,15.625-12.942a19.349,19.349,0,0,1,19.413,19.285,21.262,21.262,0,0,1-11.861,19.053h0a23.409,23.409,0,0,0,15.529-22,23.141,23.141,0,0,0-1.036-6.889" transform="translate(-248.618 -1154.164)" fill="#e5002b"/>
        <path id="路径_3" data-name="路径 3" d="M315.272,1181.6v2.1H302.819v-2.1h3.913v-6.22H309.1v6.22Zm-3.546-2.208v-9.616h-8.2v-2.082h10.542v11.7Zm7.4,6.206h-2.394v-18.943h2.394v7.982h2.449v2.232h-2.449Z" transform="translate(-241.069 -1152.589)" fill="#464545"/>
        <path id="路径_4" data-name="路径 4" d="M330.654,1167.9v2.041H319.471V1167.9h4.39v-1.566h2.522v1.566Zm-10.381,11.3h15.1v6.281h-2.363v-4.209H320.273Zm9.289-4.865a3.665,3.665,0,0,1-.354,1.572,4.334,4.334,0,0,1-.945,1.29,5.2,5.2,0,0,1-1.417.867,4.354,4.354,0,0,1-1.719.326,4.422,4.422,0,0,1-1.724-.326,4.945,4.945,0,0,1-1.415-.867,4.08,4.08,0,0,1-.959-1.29,3.738,3.738,0,0,1-.35-1.572,3.681,3.681,0,0,1,.35-1.567,4.3,4.3,0,0,1,.959-1.28,4.979,4.979,0,0,1,1.415-.858,4.436,4.436,0,0,1,1.724-.327,4.368,4.368,0,0,1,1.719.327,5.241,5.241,0,0,1,1.417.858,4.589,4.589,0,0,1,.945,1.28,3.611,3.611,0,0,1,.354,1.567m-2.281-.025a1.938,1.938,0,0,0-.639-1.45,2.2,2.2,0,0,0-3.024,0,1.945,1.945,0,0,0-.613,1.45,1.977,1.977,0,0,0,.613,1.466,2.152,2.152,0,0,0,3.024,0,1.969,1.969,0,0,0,.639-1.466m8.088,3.828h-2.363v-11.426h2.363v4.435h2.753v2.319H335.37Z" transform="translate(-238.338 -1152.642)" fill="#464545"/>
        <path id="路径_5" data-name="路径 5" d="M346.113,1183.11h-2.39v-13.164h-7.352v-2.129h9.742Zm4.795-16.456h2.39V1185.6h-2.39Z" transform="translate(-235.567 -1152.589)" fill="#464545"/>
        <path id="路径_6" data-name="路径 6" d="M360.768,1177.451v-1.464h-7.616v-1.93h17.642v1.93H363.15v1.464h6.222v4.8H356.918v1.141h12.71v1.938H354.572V1180.4h12.441v-1.085H354.572v-1.867Zm1.2-8.52-6.709,4.7-1.422-1.637,8.131-5.648,8.133,5.648-1.42,1.637Z" transform="translate(-232.815 -1152.64)" fill="#464545"/>
        <path id="路径_7" data-name="路径 7" d="M369.79,1169.225v-2.015h11.022v2.015h-4.7l4.884,5.88-1.654,1.355-3.96-4.854-3.9,5.177-1.714-1.364,4.884-6.195Zm15.256,12.337a4.116,4.116,0,0,1-.4,1.794,4.887,4.887,0,0,1-2.648,2.476,5.257,5.257,0,0,1-3.883,0,4.79,4.79,0,0,1-1.593-1,4.87,4.87,0,0,1-1.062-1.474,4.221,4.221,0,0,1,0-3.587,4.787,4.787,0,0,1,1.062-1.475,4.929,4.929,0,0,1,1.593-1.014,5.249,5.249,0,0,1,3.883,0,4.965,4.965,0,0,1,1.582,1.014,4.726,4.726,0,0,1,1.066,1.475,4.1,4.1,0,0,1,.4,1.792m-2.347-.023a2.449,2.449,0,0,0-.783-1.826,2.614,2.614,0,0,0-1.886-.761,2.538,2.538,0,0,0-1.848.761,2.548,2.548,0,0,0,0,3.658,2.526,2.526,0,0,0,1.848.756,2.6,2.6,0,0,0,1.886-.756,2.427,2.427,0,0,0,.783-1.832m1.593-4.839v-4.1h-3.569v-2.041h3.569v-3.9h2.389V1176.7Z" transform="translate(-230.089 -1152.589)" fill="#464545"/>
        <path id="路径_8" data-name="路径 8" d="M400.388,1170.259v-2.911h2.365v10.832h-6.211V1182h7.635v2.08H386.543V1182h7.612v-3.821H387.96v-10.832H390.3v2.911Zm0,2.035H390.3v3.817h10.091Z" transform="translate(-227.339 -1152.475)" fill="#464545"/>
        <path id="路径_9" data-name="路径 9" d="M404.646,1174.5v-7.684h14.785v1.908H407.016v1h12.324v1.852H407.016v1.058h12.478v1.866h-6.256v1.209h7.63v1.931H403.229v-1.931h7.618V1174.5Zm12.1,7.729a3.641,3.641,0,0,1-.357,1.606,4.1,4.1,0,0,1-.982,1.322,5.182,5.182,0,0,1-1.516.916,5.053,5.053,0,0,1-5.169-.916,4.016,4.016,0,0,1-1-1.322,3.717,3.717,0,0,1-.363-1.606,3.669,3.669,0,0,1,.363-1.613,4.419,4.419,0,0,1,1-1.339,4.74,4.74,0,0,1,1.506-.9,5.14,5.14,0,0,1,1.825-.33,5.089,5.089,0,0,1,1.838.33,4.964,4.964,0,0,1,1.516.9,4.519,4.519,0,0,1,.982,1.339,3.6,3.6,0,0,1,.357,1.613m-2.367-.024a2.118,2.118,0,0,0-.69-1.589,2.369,2.369,0,0,0-3.277,0,2.086,2.086,0,0,0-.7,1.589,2.142,2.142,0,0,0,.7,1.608,2.35,2.35,0,0,0,3.277,0,2.176,2.176,0,0,0,.69-1.608" transform="translate(-224.602 -1152.562)" fill="#464545"/>
        <path id="路径_10" data-name="路径 10" d="M425.73,1166.57l6.041,9.651-1.93,1.194-4.112-6.794-4.086,6.943-1.979-1.191Zm-4.491,18.662V1178.9H423.6v4.246h13.355v2.085Zm13.16-18.564h2.395v12.126H434.4Z" transform="translate(-221.907 -1152.603)" fill="#464545"/>
        <path id="路径_11" data-name="路径 11" d="M436.615,1178.591h17.64v2.071h-7.637v4.89h-2.386v-4.89h-7.618Zm3.768-9.26h10.085v-2.4h2.37v9.1H438.032v-9.1h2.35Zm10.085,2.039H440.383v2.613h10.085Z" transform="translate(-219.127 -1152.545)" fill="#464545"/>
      </g>
    </g>
  </g>
</svg>
