<svg xmlns="http://www.w3.org/2000/svg" width="28.622" height="28.623" viewBox="0 0 28.622 28.623">
  <g id="telephone" transform="translate(-0.006)" opacity="0.5">
    <g id="组_736" data-name="组 736" transform="translate(0.006)">
      <path id="路径_7602" data-name="路径 7602" d="M21.766,62.324a2.005,2.005,0,0,0-3.032,0c-.709.7-1.418,1.406-2.114,2.12a.418.418,0,0,1-.584.107c-.459-.25-.947-.453-1.388-.727A21.988,21.988,0,0,1,9.348,59a12.559,12.559,0,0,1-1.9-3.044.436.436,0,0,1,.107-.56c.709-.685,1.4-1.388,2.1-2.091a2.013,2.013,0,0,0-.006-3.1c-.554-.56-1.108-1.108-1.662-1.668-.572-.572-1.138-1.15-1.715-1.715a2.018,2.018,0,0,0-3.032.006c-.715.7-1.4,1.423-2.126,2.114A3.451,3.451,0,0,0,.026,51.269a9.867,9.867,0,0,0,.762,4.247,25.805,25.805,0,0,0,4.58,7.63,28.344,28.344,0,0,0,9.387,7.344A13.576,13.576,0,0,0,19.956,72a3.811,3.811,0,0,0,3.27-1.245c.608-.679,1.292-1.3,1.936-1.948a2.026,2.026,0,0,0,.012-3.085Q23.476,64.018,21.766,62.324Z" transform="translate(-0.006 -43.389)"/>
      <path id="路径_7603" data-name="路径 7603" d="M244.31,104.47l2.2-.375A9.865,9.865,0,0,0,238.164,96l-.31,2.21a7.624,7.624,0,0,1,6.456,6.26Z" transform="translate(-223.688 -90.282)"/>
      <path id="路径_7604" data-name="路径 7604" d="M252.355,4.634A16.206,16.206,0,0,0,243.064,0l-.31,2.21a14.141,14.141,0,0,1,11.966,11.6l2.2-.375A16.324,16.324,0,0,0,252.355,4.634Z" transform="translate(-228.296)"/>
    </g>
  </g>
</svg>
