<svg xmlns="http://www.w3.org/2000/svg" width="243.261" height="243.262" viewBox="0 0 243.261 243.262">
  <path id="telescope" d="M.956,82.9l45.8-79.332A7.129,7.129,0,0,1,56.494.955L82.937,16.222a7.126,7.126,0,0,1,2.608,9.735l-.563.974,132.632,93.523a7.127,7.127,0,0,1,2.065,9.388l-.254.439,20.271,11.7a7.126,7.126,0,0,1,2.608,9.735l-15.268,26.446a7.126,7.126,0,0,1-9.735,2.608l-20.27-11.7-.253.439a7.126,7.126,0,0,1-9.163,2.905l-40.965-18.941a30.284,30.284,0,0,1-7.294,7.638l27.117,72.522a7.127,7.127,0,1,1-13.351,4.993l-26.941-72.05a30.106,30.106,0,0,1-9.1,0l-26.94,72.048a7.127,7.127,0,1,1-13.351-4.993L103.9,161.114a29.965,29.965,0,0,1-11.119-32.54l-52.48-24.258-.562.974a7.126,7.126,0,0,1-9.735,2.608L3.565,92.631A7.127,7.127,0,0,1,.956,82.9Zm217.3,81.973,8.141-14.1-14.1-8.14-8.141,14.1Zm-96.626-12.2A15.774,15.774,0,1,0,105.857,136.9,15.792,15.792,0,0,0,121.631,152.672Zm-21.7-36.5A30.006,30.006,0,0,1,151.659,136.9a30.255,30.255,0,0,1-.162,3.115l36.193,16.734,16.392-28.394L77.827,39.326,47.462,91.92ZM30.964,91.991,69.639,25l-14.1-8.141L16.864,83.85Z" transform="translate(0 0)" fill="#edf4e4"/>
</svg>
