<svg xmlns="http://www.w3.org/2000/svg" xmlns:xlink="http://www.w3.org/1999/xlink" width="39.001" height="50" viewBox="0 0 39.001 50">
  <defs>
    <clipPath id="clip-path">
      <path id="联合_4" data-name="联合 4" d="M1124.816,2623l-.864-3.208h-.017l-.875,3.208h-.453l-1.081-3.925H1122l.83,3.209h.023l.869-3.209h.464l.852,3.214h.017l.847-3.214h.452l-1.093,3.925Zm10.463-.016-2.053-3.16h-.012v3.149h-.435v-3.9h.469l2.02,3.083h.017v-3.083h.429v3.909Zm-3.5,0-2.055-3.16h-.011v3.149h-.435v-3.9h.469l2.02,3.083h.017v-3.083h.429v3.909Zm-14.891-.982v-.142h.71v.082c0,.306.24.476.595.476a.567.567,0,0,0,.624-.6v-.749a1.13,1.13,0,0,1-.932.393.936.936,0,0,1-1.047-.9v-.541c0-.706.618-1.077,1.391-1.077a1.213,1.213,0,0,1,1.356,1.148v1.717a1.263,1.263,0,0,1-1.419,1.166C1117.374,2622.975,1116.887,2622.608,1116.887,2622Zm.681-1.984v.47a.523.523,0,0,0,.589.5.655.655,0,0,0,.658-.635v-.263a.576.576,0,0,0-.624-.59C1117.775,2619.5,1117.569,2619.733,1117.569,2620.017Zm24.008,2.956-1.1-1.547h-.767v1.547h-.47v-3.9h1.4a1.506,1.506,0,0,1,.9.252,1.078,1.078,0,0,1,.435.9,1.126,1.126,0,0,1-1.012,1.159l1.15,1.585Zm-1.871-1.93h.818c.641,0,.979-.268.979-.814h0c0-.519-.418-.771-1-.771h-.806Zm-3.426,1.93v-3.9h2.482v.394h-2.019v1.29h1.63v.389h-1.63v1.432h2.025v.393Zm-9.731,0v-.393h.886v-3.11h-.886v-.394h2.236v.394h-.886v3.11h.886v.393Zm-12.2-.064v-.514h.887v-2.76l-.83.082-.022-.5,1.4-.224.177-.005v3.412h.83v.514Zm23.265-5.768-.947-2.982-.945,2.982h-.837l-1.373-4.913h1.048l.794,3.1.938-3.1h.752l.938,3.1.8-3.1h1.047l-1.38,4.913Zm-16.809,0v-4.913h3.385v.857h-2.381v1.151h2.03v.856h-2.03v1.193h2.381v.857Zm-2.708,0-.946-2.982-.948,2.982h-.835l-1.373-4.913h1.048l.794,3.1.941-3.1h.749l.939,3.1.8-3.1h1.046l-1.378,4.913Zm30.2,0v-4.912h1.854a2.446,2.446,0,0,1,.758.114,1.563,1.563,0,0,1,.6.355,1.545,1.545,0,0,1,.449.773,4.05,4.05,0,0,1,.072.883v.629a4.191,4.191,0,0,1-.072.9,1.538,1.538,0,0,1-.449.792,1.557,1.557,0,0,1-.595.35,2.373,2.373,0,0,1-.761.12Zm1-.856h.758a.921.921,0,0,0,.75-.3.826.826,0,0,0,.18-.43,6.731,6.731,0,0,0,.038-.887,6.171,6.171,0,0,0-.038-.852.848.848,0,0,0-.174-.417.81.81,0,0,0-.314-.235,1.165,1.165,0,0,0-.442-.075h-.758Zm-2.553.856-1.005-1.961h-.724v1.961h-1v-4.912h2.013a1.7,1.7,0,0,1,1.228.442,1.4,1.4,0,0,1,.441,1.062,1.288,1.288,0,0,1-.282.833,1.4,1.4,0,0,1-.657.454l1.148,2.12Zm-1.73-2.766h.949a.753.753,0,0,0,.526-.18.589.589,0,0,0,.2-.466.6.6,0,0,0-.2-.471.774.774,0,0,0-.529-.173h-.949Zm-2.293,2.766-.3-.868H1140.6l-.312.868h-1.046l1.871-4.912h.786l1.877,4.912Zm-1.848-1.675h1.278l-.628-1.788Zm-7.932,1.675-.305-.868h-1.826l-.31.868h-1.047l1.87-4.912h.785l1.88,4.912Zm-1.849-1.675h1.277l-.627-1.788Zm-6.207,1.675v-4.912h2.066a1.711,1.711,0,0,1,1.166.369,1.272,1.272,0,0,1,.424,1.01,1.105,1.105,0,0,1-.218.669,1.045,1.045,0,0,1-.418.346,1.215,1.215,0,0,1,.469.351,1.192,1.192,0,0,1,.237.752,1.3,1.3,0,0,1-.432,1.042,1.687,1.687,0,0,1-1.139.373Zm1-.856h1.047a.666.666,0,0,0,.5-.173.583.583,0,0,0,.176-.435.572.572,0,0,0-.159-.42.7.7,0,0,0-.512-.178H1125.9Zm0-2.068h.982a.728.728,0,0,0,.491-.153.573.573,0,0,0-.006-.824.705.705,0,0,0-.485-.154h-.982Zm-11.385-10.41V2573l38.484,6.483-5.521,29.875Z" fill="none"/>
    </clipPath>
  </defs>
  <g id="Vector_Smart_Object" data-name="Vector Smart Object" transform="translate(-1113.999 -2573)">
    <g id="Vector_Smart_Object-2" data-name="Vector Smart Object" transform="translate(1090.612 2559.543)">
      <g id="组_12" data-name="组 12">
        <g id="组_9" data-name="组 9">
          <path id="路径_23" data-name="路径 23" d="M62.388,19.94,23.9,13.456V44.262l32.963,5.553Z" fill="#c5061c"/>
          <path id="路径_24" data-name="路径 24" d="M49.252,26.364,43.3,35.769,41.268,25.02l-2.209-.372L33.116,34l-2.006-10.7-2.653-.446,2.908,14.679,2.146.361,5.92-9.2,2.09,10.547,2.186.368,6.182-9.584,1.017,5.1-1.9-.32L47.58,37.025l3.8.639.706,3.366,2.5.421L51.86,26.8Z" fill="#fff"/>
          <path id="路径_25" data-name="路径 25" d="M29.7,52.685,28.327,57.6h-.837l-.945-2.981L25.6,57.6H24.76l-1.373-4.912h1.047l.794,3.1.94-3.1h.749l.939,3.1.8-3.1Z" fill="#c5061c"/>
          <path id="路径_26" data-name="路径 26" d="M33.583,57.6H30.2V52.685h3.385v.856H31.2v1.152h2.029v.856H31.2V56.74h2.382Z" fill="#c5061c"/>
          <path id="路径_27" data-name="路径 27" d="M38.009,56.181a1.3,1.3,0,0,1-.432,1.043,1.691,1.691,0,0,1-1.14.373H34.284V52.685H36.35a1.715,1.715,0,0,1,1.166.368,1.274,1.274,0,0,1,.424,1.011,1.1,1.1,0,0,1-.218.669,1.043,1.043,0,0,1-.418.345,1.223,1.223,0,0,1,.469.351,1.191,1.191,0,0,1,.237.752m-1.075-2.075a.524.524,0,0,0-.179-.411.709.709,0,0,0-.485-.154h-.982v1.132h.982a.726.726,0,0,0,.491-.153.521.521,0,0,0,.173-.414m.072,2.028a.57.57,0,0,0-.159-.421.7.7,0,0,0-.512-.179H35.289V56.74h1.047a.667.667,0,0,0,.5-.173.583.583,0,0,0,.175-.434" fill="#c5061c"/>
          <path id="路径_28" data-name="路径 28" d="M43.387,57.6H42.34l-.3-.869H40.209l-.31.869H38.852l1.87-4.912h.785Zm-1.619-1.676-.627-1.788-.65,1.788Z" fill="#c5061c"/>
          <path id="路径_29" data-name="路径 29" d="M49.224,52.685,47.844,57.6h-.837l-.947-2.981L45.115,57.6h-.837L42.9,52.685h1.048l.794,3.1.937-3.1h.753l.938,3.1.8-3.1Z" fill="#c5061c"/>
          <path id="路径_30" data-name="路径 30" d="M53.167,57.6H52.12l-.3-.869H49.99l-.312.869H48.633L50.5,52.685h.787ZM51.55,55.921l-.628-1.788-.65,1.788Z" fill="#c5061c"/>
          <path id="路径_31" data-name="路径 31" d="M57.3,57.6H56.143l-1.005-1.961h-.724V57.6h-1V52.685h2.013a1.7,1.7,0,0,1,1.227.442,1.4,1.4,0,0,1,.441,1.062,1.289,1.289,0,0,1-.281.833,1.394,1.394,0,0,1-.657.454ZM56.09,54.185a.6.6,0,0,0-.2-.471.773.773,0,0,0-.529-.173h-.948v1.29h.948a.757.757,0,0,0,.526-.179.591.591,0,0,0,.2-.466" fill="#c5061c"/>
          <path id="路径_32" data-name="路径 32" d="M61.426,55.119v.318a4.2,4.2,0,0,1-.072.9,1.546,1.546,0,0,1-1.044,1.142,2.365,2.365,0,0,1-.761.12H57.694V52.685h1.854a2.455,2.455,0,0,1,.758.113,1.585,1.585,0,0,1,1.047,1.129,4.061,4.061,0,0,1,.072.884Zm-1,0a6.258,6.258,0,0,0-.038-.852.846.846,0,0,0-.174-.417.817.817,0,0,0-.314-.235,1.162,1.162,0,0,0-.442-.075H58.7v3.2h.758a.925.925,0,0,0,.75-.3.828.828,0,0,0,.18-.43,6.821,6.821,0,0,0,.038-.888" fill="#c5061c"/>
        </g>
        <g id="组_10" data-name="组 10">
          <path id="路径_33" data-name="路径 33" d="M34.65,63.457H34.2l-.864-3.209h-.017l-.875,3.209H32l-1.081-3.925h.475l.83,3.209h.023l.869-3.209h.464l.852,3.214h.017l.846-3.214h.453Z" fill="#222224"/>
          <path id="路径_34" data-name="路径 34" d="M35.937,63.43v-.394h.887v-3.11h-.887v-.394h2.237v.394h-.887v3.11h.887v.394Z" fill="#222224"/>
          <path id="路径_35" data-name="路径 35" d="M41.166,63.44l-2.054-3.16H39.1V63.43h-.435v-3.9h.469l2.02,3.083h.017V59.532H41.6V63.44Z" fill="#222224"/>
          <path id="路径_36" data-name="路径 36" d="M44.667,63.44l-2.054-3.16H42.6V63.43h-.435v-3.9h.47l2.019,3.083h.017V59.532H45.1V63.44Z" fill="#222224"/>
          <path id="路径_37" data-name="路径 37" d="M45.668,63.43v-3.9H48.15v.394H46.131v1.29h1.631V61.6H46.131v1.432h2.025v.394Z" fill="#222224"/>
          <path id="路径_38" data-name="路径 38" d="M50.965,63.43l-1.1-1.547H49.1V63.43h-.47v-3.9h1.4a1.505,1.505,0,0,1,.9.252,1.078,1.078,0,0,1,.435.9,1.125,1.125,0,0,1-1.013,1.159l1.15,1.586ZM50.9,60.685c0-.519-.418-.771-1-.771h-.807V61.5h.818c.641,0,.979-.268.979-.815Z" fill="#222224"/>
        </g>
        <g id="组_11" data-name="组 11">
          <path id="路径_39" data-name="路径 39" d="M23.742,63.366v-.514h.887V60.091l-.83.082-.023-.5,1.4-.224.178-.005v3.412h.83v.514Z" fill="#c5061c"/>
          <path id="路径_40" data-name="路径 40" d="M27.552,63.432c-.789,0-1.276-.367-1.276-.973v-.142h.71V62.4c0,.306.24.476.6.476a.566.566,0,0,0,.624-.6v-.749a1.132,1.132,0,0,1-.933.394.936.936,0,0,1-1.047-.9v-.541c0-.705.618-1.077,1.39-1.077a1.214,1.214,0,0,1,1.357,1.148v1.717A1.263,1.263,0,0,1,27.552,63.432Zm.653-2.887a.576.576,0,0,0-.624-.591c-.418,0-.624.235-.624.52v.47a.522.522,0,0,0,.589.5.655.655,0,0,0,.658-.634Z" fill="#c5061c"/>
        </g>
      </g>
    </g>
    <g id="Clip" clip-path="url(#clip-path)">
      <rect id="Rectangle_53" data-name="Rectangle 53" width="31.64" height="8.64" transform="translate(1120.62 2618.36)" fill="#fff"/>
    </g>
  </g>
</svg>
