<svg xmlns="http://www.w3.org/2000/svg" width="18.671" height="14" viewBox="0 0 18.671 14">
  <path id="icon" d="M276.686,360.109a3.358,3.358,0,0,1-2.839-2.752,21.576,21.576,0,0,1,0-7.71,3.36,3.36,0,0,1,2.839-2.752,48.44,48.44,0,0,1,12.3,0,3.359,3.359,0,0,1,2.839,2.752,21.576,21.576,0,0,1,0,7.71,3.361,3.361,0,0,1-2.839,2.753,48.289,48.289,0,0,1-12.3,0Zm.173-12.092A2.213,2.213,0,0,0,275,349.836a20.255,20.255,0,0,0,0,7.333,2.21,2.21,0,0,0,1.861,1.817,47.057,47.057,0,0,0,11.956,0,2.21,2.21,0,0,0,1.859-1.818,20.223,20.223,0,0,0,0-7.334,2.209,2.209,0,0,0-1.859-1.818,47.025,47.025,0,0,0-11.955,0Zm3.491,8.134v-5.3a.584.584,0,0,1,.882-.487l4.568,2.653a.561.561,0,0,1,0,.975l-4.566,2.645a.589.589,0,0,1-.3.08A.577.577,0,0,1,280.35,356.152Zm1.167-1,2.845-1.648-2.845-1.653Z" transform="translate(-273.5 -346.503)" fill="#fff"/>
</svg>
