<svg xmlns="http://www.w3.org/2000/svg" width="263.066" height="283.066" viewBox="0 0 263.066 283.066">
  <g id="组_817" data-name="组 817" transform="translate(1 1)">
    <path id="路径_8935" data-name="路径 8935" d="M180.56,205.767l-7.073-2.211V173.312a9.673,9.673,0,0,0-9.662-9.662H148.3a9.673,9.673,0,0,0-9.662,9.662v2.37L36.851,202.467H9.662A9.673,9.673,0,0,0,0,212.129v55.456a9.673,9.673,0,0,0,9.662,9.662h5.863v52.715a8.558,8.558,0,0,0-4.434,7.492v8.873a8.563,8.563,0,0,0,8.553,8.553H46.262a8.563,8.563,0,0,0,8.553-8.553v-8.873a8.557,8.557,0,0,0-4.438-7.494V303.865h8.086a4.118,4.118,0,0,0,4.031-3.278l3.584-17.213,72.555,15.275v2.207a9.673,9.673,0,0,0,9.662,9.662h15.53a9.673,9.673,0,0,0,9.662-9.662v-24.7l7.073-2.21a15.142,15.142,0,0,0,10.671-14.516V220.281a15.14,15.14,0,0,0-10.671-14.514ZM36.969,277.246l5.174,1.089V328.9H23.759V277.246h13.21Zm9.612,69.08a.32.32,0,0,1-.319.319H19.644a.32.32,0,0,1-.319-.319v-8.873a.32.32,0,0,1,.319-.319H46.262a.32.32,0,0,1,.319.319v8.873Zm8.534-50.7H50.378V280.069l7.643,1.609Zm108.71,6.653H148.3a1.429,1.429,0,0,1-1.427-1.428v-92.6a4.117,4.117,0,1,0-8.234,0v81.982L47.1,270.964l-.012,0-5.578-1.174v-5.172a4.117,4.117,0,0,0-8.234,0v4.4H9.662a1.429,1.429,0,0,1-1.427-1.427V212.129A1.429,1.429,0,0,1,9.662,210.7H33.272v60.5a4.117,4.117,0,0,0,8.234,0V209.757l97.127-25.56V211a4.117,4.117,0,1,0,8.234,0V173.312a1.429,1.429,0,0,1,1.427-1.427h15.53a1.429,1.429,0,0,1,1.428,1.427V300.857A1.43,1.43,0,0,1,163.826,302.284ZM183,259.428a6.943,6.943,0,0,1-4.893,6.657l-4.616,1.443V212.183l4.616,1.443A6.943,6.943,0,0,1,183,220.282Z" transform="translate(0 -73.813)" fill="#faefef" stroke="#faefef" stroke-width="2"/>
    <path id="路径_8936" data-name="路径 8936" d="M246.545,32.395A20.754,20.754,0,1,0,258.17,70.333l2.229,2.229a4.118,4.118,0,0,0,5.823-5.823l-2.285-2.285a20.738,20.738,0,0,0-17.392-32.059Zm0,33.272A12.53,12.53,0,1,1,257.9,58.416l-2.322-2.322a4.117,4.117,0,1,0-5.823,5.823l2.412,2.412A12.437,12.437,0,0,1,246.545,65.667Z" transform="translate(-121.841 -14.611)" fill="#faefef" stroke="#faefef" stroke-width="2"/>
    <path id="路径_8937" data-name="路径 8937" d="M402.338,69.785V36.512a4.117,4.117,0,0,0-8.234,0V69.785a4.117,4.117,0,0,0,8.234,0Z" transform="translate(-197.757 -14.611)" fill="#faefef" stroke="#faefef" stroke-width="2"/>
    <path id="路径_8938" data-name="路径 8938" d="M425.223,71.746a4.117,4.117,0,0,0,3.62,2.156h22.2a4.117,4.117,0,0,0,0-8.234h-14.6l17.533-26.908a4.118,4.118,0,0,0-3.45-6.365h-21a4.117,4.117,0,1,0,0,8.234h13.4L425.393,67.536A4.117,4.117,0,0,0,425.223,71.746Z" transform="translate(-211.569 -14.611)" fill="#faefef" stroke="#faefef" stroke-width="2"/>
    <path id="路径_8939" data-name="路径 8939" d="M323.219,32.395a4.117,4.117,0,0,0-4.117,4.117V59.407c0,5.005,2.4,9.074,7.12,12.092a15.286,15.286,0,0,0,8.345,2.4h.022a16.136,16.136,0,0,0,7.331-1.7c7.056-3.553,8.536-8.933,8.536-12.82V36.512a4.117,4.117,0,1,0-8.234,0V59.383c0,1.606-.455,3.679-4.005,5.467a7.876,7.876,0,0,1-3.625.817h-.013a7.083,7.083,0,0,1-3.922-1.107c-2.755-1.76-3.32-3.333-3.32-5.154V36.512A4.118,4.118,0,0,0,323.219,32.395Z" transform="translate(-163.928 -14.611)" fill="#faefef" stroke="#faefef" stroke-width="2"/>
    <path id="路径_8940" data-name="路径 8940" d="M354.866,0H207.63a13.7,13.7,0,0,0-13.68,13.68V63.394a13.7,13.7,0,0,0,13.68,13.68h74.719a4.117,4.117,0,0,0,0-8.234H207.63a5.452,5.452,0,0,1-5.446-5.446V13.68a5.452,5.452,0,0,1,5.446-5.446H354.866a5.452,5.452,0,0,1,5.446,5.446V63.394a5.452,5.452,0,0,1-5.446,5.446H320.183a4.116,4.116,0,0,0-2.9,1.2L296.457,90.717V72.957a4.117,4.117,0,0,0-4.117-4.117H279.6a4.117,4.117,0,1,0,0,8.234h8.618v23.533a4.117,4.117,0,0,0,7.018,2.921L321.88,77.074h32.986a13.7,13.7,0,0,0,13.68-13.68V13.68A13.7,13.7,0,0,0,354.866,0Z" transform="translate(-107.479)" fill="#faefef" stroke="#faefef" stroke-width="2"/>
  </g>
</svg>
