<svg xmlns="http://www.w3.org/2000/svg" width="450.078" height="309.357" viewBox="0 0 450.078 309.357">
  <g id="object" transform="translate(-7.618 -6.087)">
    <g id="组_1283" data-name="组 1283" transform="translate(400.802 37.455)">
      <circle id="椭圆_11" data-name="椭圆 11" cx="14.758" cy="14.758" r="14.758" fill="#fed65c"/>
    </g>
    <g id="组_1284" data-name="组 1284" transform="translate(395.208 30.517)">
      <path id="路径_8999" data-name="路径 8999" d="M101.142,43.658l-.693-3.873a12.719,12.719,0,0,0,4.156-1.527l1.978,3.4A16.709,16.709,0,0,1,101.142,43.658ZM89.885,41.711A16.826,16.826,0,0,1,85.424,38l3-2.545a12.852,12.852,0,0,0,3.411,2.839ZM113.915,32.9l-3.7-1.338a12.757,12.757,0,0,0,.766-4.372l3.936-.173v.173A16.77,16.77,0,0,1,113.915,32.9ZM81.472,27.279v-.084a16.81,16.81,0,0,1,.966-5.621l3.71,1.312a12.824,12.824,0,0,0-.74,4.309Zm26.44-8.407a12.844,12.844,0,0,0-3.427-2.818l1.937-3.427A16.8,16.8,0,0,1,110.9,16.31Zm-16.2-2.713-2-3.39a16.571,16.571,0,0,1,5.437-2.026l.709,3.868A12.543,12.543,0,0,0,91.716,16.158Z" transform="translate(-81.472 -10.742)" fill="#3c3c3b"/>
    </g>
    <g id="组_1285" data-name="组 1285" transform="translate(106.029 19.748)">
      <rect id="矩形_287" data-name="矩形 287" width="17.712" height="17.712" fill="#9be8f5"/>
    </g>
    <g id="组_1286" data-name="组 1286" transform="translate(92.369 6.087)">
      <path id="路径_9000" data-name="路径 9000" d="M48.249,30.569H23.767V6.087H48.249ZM27.7,26.633h16.61V10.023H27.7v16.61Z" transform="translate(-23.767 -6.087)" fill="#3c3c3b"/>
    </g>
    <g id="组_1287" data-name="组 1287" transform="translate(58.701 296.394)">
      <path id="路径_9001" data-name="路径 9001" d="M17.921,86.361a9.525,9.525,0,1,1,9.525-9.525A9.535,9.535,0,0,1,17.921,86.361Zm0-15.114a5.589,5.589,0,1,0,5.589,5.589A5.6,5.6,0,0,0,17.921,71.247Z" transform="translate(-8.396 -67.311)" fill="#3c3c3b"/>
    </g>
    <g id="组_1291" data-name="组 1291" transform="translate(202.09 30.239)">
      <g id="组_1288" data-name="组 1288">
        <rect id="矩形_288" data-name="矩形 288" width="46.954" height="3.936" fill="#3c3c3b"/>
      </g>
      <g id="组_1289" data-name="组 1289" transform="translate(54.601)">
        <rect id="矩形_289" data-name="矩形 289" width="5.411" height="3.936" fill="#3c3c3b"/>
      </g>
      <g id="组_1290" data-name="组 1290" transform="translate(67.695)">
        <rect id="矩形_290" data-name="矩形 290" width="5.405" height="3.936" fill="#3c3c3b"/>
      </g>
    </g>
    <g id="组_1295" data-name="组 1295" transform="translate(31.974 87.406)">
      <g id="组_1292" data-name="组 1292">
        <rect id="矩形_291" data-name="矩形 291" width="3.936" height="46.96" fill="#3c3c3b"/>
      </g>
      <g id="组_1293" data-name="组 1293" transform="translate(0 54.606)">
        <rect id="矩形_292" data-name="矩形 292" width="3.936" height="5.411" fill="#3c3c3b"/>
      </g>
      <g id="组_1294" data-name="组 1294" transform="translate(0 67.7)">
        <rect id="矩形_293" data-name="矩形 293" width="3.936" height="5.405" fill="#3c3c3b"/>
      </g>
    </g>
    <g id="组_1298" data-name="组 1298" transform="translate(445.101 148.189)">
      <g id="组_1296" data-name="组 1296" transform="translate(4.335 0)">
        <rect id="矩形_294" data-name="矩形 294" width="3.936" height="12.601" fill="#3c3c3b"/>
      </g>
      <g id="组_1297" data-name="组 1297" transform="translate(0 4.33)">
        <rect id="矩形_295" data-name="矩形 295" width="12.595" height="3.936" fill="#3c3c3b"/>
      </g>
    </g>
    <g id="组_1299" data-name="组 1299" transform="translate(29.628 205.14)">
      <path id="路径_9002" data-name="路径 9002" d="M33.765,56.69,11.812,44.016V69.364Z" transform="translate(-11.812 -44.016)" fill="#eae9e9"/>
    </g>
    <g id="组_1300" data-name="组 1300" transform="translate(21.914 190.582)">
      <path id="路径_9003" data-name="路径 9003" d="M10.342,74.641v-33.4l28.922,16.7Zm3.936-26.576V67.829l17.114-9.882Z" transform="translate(-10.342 -41.242)" fill="#3c3c3b"/>
    </g>
    <g id="组_1301" data-name="组 1301" transform="translate(406.956 288.173)">
      <path id="路径_9004" data-name="路径 9004" d="M87.712,74.688,104.2,84.213V65.173Z" transform="translate(-87.712 -65.173)" fill="#afafaf"/>
    </g>
    <g id="组_1304" data-name="组 1304" transform="translate(13.438 9.199)">
      <g id="组_1302" data-name="组 1302" transform="translate(0 10.863)">
        <rect id="矩形_296" data-name="矩形 296" width="3.936" height="4.713" fill="#3c3c3b"/>
      </g>
      <g id="组_1303" data-name="组 1303">
        <rect id="矩形_297" data-name="矩形 297" width="3.936" height="4.713" fill="#3c3c3b"/>
      </g>
    </g>
    <g id="组_1307" data-name="组 1307" transform="translate(7.618 15.024)">
      <g id="组_1305" data-name="组 1305">
        <rect id="矩形_298" data-name="矩形 298" width="4.713" height="3.936" fill="#3c3c3b"/>
      </g>
      <g id="组_1306" data-name="组 1306" transform="translate(10.863)">
        <rect id="矩形_299" data-name="矩形 299" width="4.713" height="3.936" fill="#3c3c3b"/>
      </g>
    </g>
    <g id="组_1310" data-name="组 1310" transform="translate(385.488 89.961)">
      <g id="组_1308" data-name="组 1308" transform="translate(10.087 10.087)">
        <circle id="椭圆_12" data-name="椭圆 12" cx="10.27" cy="10.27" r="10.27" fill="#eae9e9"/>
      </g>
      <g id="组_1309" data-name="组 1309">
        <path id="路径_9005" data-name="路径 9005" d="M91.858,46.546A12.238,12.238,0,1,1,104.1,34.307,12.251,12.251,0,0,1,91.858,46.546Zm0-20.541a8.3,8.3,0,1,0,8.3,8.3A8.311,8.311,0,0,0,91.858,26.005Z" transform="translate(-79.62 -22.069)" fill="#3c3c3b"/>
      </g>
    </g>
    <g id="组_1311" data-name="组 1311" transform="translate(405.586 275.877)">
      <path id="路径_9006" data-name="路径 9006" d="M112.18,91.385,87.451,77.11,112.18,62.83ZM95.323,77.11l12.921,7.457V69.647Z" transform="translate(-87.451 -62.83)" fill="#3c3c3b"/>
    </g>
    <g id="组_1320" data-name="组 1320" transform="translate(77.979 70.869)">
      <g id="组_1313" data-name="组 1313" transform="translate(2.629 2.619)">
        <g id="组_1312" data-name="组 1312">
          <path id="路径_9007" data-name="路径 9007" d="M51.618,183.693a2.679,2.679,0,0,1-.9-.157,2.626,2.626,0,0,1-1.721-2.467V134.943H46.045a24.548,24.548,0,0,1-24.519-24.519V43.449A24.548,24.548,0,0,1,46.045,18.93H180.49a24.548,24.548,0,0,1,24.519,24.519v66.976a24.548,24.548,0,0,1-24.519,24.519H94.028l-40.41,47.815A2.607,2.607,0,0,1,51.618,183.693Z" transform="translate(-21.526 -18.93)" fill="#fcdd5d"/>
        </g>
      </g>
      <g id="组_1315" data-name="组 1315" transform="translate(121.025 58.001)">
        <g id="组_1314" data-name="组 1314">
          <path id="路径_9008" data-name="路径 9008" d="M109.167,65.595c-1.4,24.361-24.519,24.519-24.519,24.519H44.086v30.864A24.548,24.548,0,0,0,68.6,145.5h86.456l40.41,47.815a2.618,2.618,0,0,0,2,.934,2.7,2.7,0,0,0,.9-.157,2.626,2.626,0,0,0,1.721-2.467V145.5h2.949a24.548,24.548,0,0,0,24.519-24.519V54A24.548,24.548,0,0,0,203.05,29.483H109.167V65.595Z" transform="translate(-44.086 -29.483)" fill="#9be8f5"/>
        </g>
      </g>
      <g id="组_1317" data-name="组 1317">
        <g id="组_1316" data-name="组 1316">
          <path id="路径_9009" data-name="路径 9009" d="M53.741,188.436a5.26,5.26,0,0,1-5.248-5.248v-43.5h-.325a27.173,27.173,0,0,1-27.143-27.143V45.574A27.173,27.173,0,0,1,48.168,18.431H182.607A27.173,27.173,0,0,1,209.75,45.574V112.55a27.173,27.173,0,0,1-27.143,27.143H97.379L57.751,186.579A5.241,5.241,0,0,1,53.741,188.436Zm0-5.248v0ZM48.173,23.679A21.916,21.916,0,0,0,26.278,45.574V112.55a21.916,21.916,0,0,0,21.895,21.895h5.573v48.744l41.2-48.744h87.674a21.916,21.916,0,0,0,21.895-21.895V45.574a21.916,21.916,0,0,0-21.895-21.895Z" transform="translate(-21.025 -18.431)" fill="#3c3c3b"/>
        </g>
      </g>
      <g id="组_1319" data-name="组 1319" transform="translate(118.401 55.377)">
        <g id="组_1318" data-name="组 1318">
          <path id="路径_9010" data-name="路径 9010" d="M199.595,198.994a5.235,5.235,0,0,1-4.015-1.868l-39.612-46.881H70.729A27.173,27.173,0,0,1,43.586,123.1V89.614H86.767c.819-.01,20.62-.5,21.895-21.974V28.983h96.512a27.173,27.173,0,0,1,27.143,27.143V123.1a27.173,27.173,0,0,1-27.143,27.143h-.325v43.5a5.248,5.248,0,0,1-5.253,5.248ZM48.834,94.862V123.1A21.916,21.916,0,0,0,70.729,145h87.679L199.6,193.746V145h5.573A21.916,21.916,0,0,0,227.068,123.1V56.126a21.916,21.916,0,0,0-21.895-21.895H113.91L113.9,67.866c-1.517,26.513-26.865,27-27.117,27Z" transform="translate(-43.586 -28.983)" fill="#3c3c3b"/>
        </g>
      </g>
    </g>
    <path id="heart_4_" data-name="heart (4)" d="M16.283,31.5a1.063,1.063,0,0,0,1.517,0L31.423,17.7C37.1,11.943,33.068,2,24.988,2c-4.852,0-7.079,3.566-7.947,4.232C16.169,5.563,13.957,2,9.094,2,1.04,2-3.047,11.918,2.66,17.7Z" transform="translate(162.595 265.873)" fill="#ff8697"/>
    <path id="heart_4_2" data-name="heart (4)" d="M15.243,29.618a1,1,0,0,0,1.42,0L29.416,16.7C34.735,11.308,30.956,2,23.392,2c-4.542,0-6.627,3.338-7.439,3.961C15.136,5.335,13.065,2,8.514,2,.973,2-2.852,11.284,2.49,16.7Z" transform="translate(154.619 261.226)" fill="#ff8697" stroke="#3c3c3b" stroke-width="4"/>
    <g id="like" transform="translate(263.618 128.438)">
      <g id="组_1322" data-name="组 1322" transform="translate(0 26.037)">
        <g id="组_1321" data-name="组 1321" transform="translate(0 0)">
          <path id="路径_9011" data-name="路径 9011" d="M68.751,62.3a6.9,6.9,0,0,0-1.457-4.382,7.087,7.087,0,0,0,.82-.692,6.981,6.981,0,0,0,.093-9.9,7.22,7.22,0,0,0-5.122-2.156H49.712v-12.1a7.036,7.036,0,0,0-6.9-7.035A6.919,6.919,0,0,0,37.8,28.05a7.22,7.22,0,0,0-2.156,5.121v1.971a16.141,16.141,0,0,1-5.27,11.917l-6.245,5.68H20.118v-2.81H0V89.115H20.118V86.767L26.1,89.115h32.68a7.036,7.036,0,0,0,7.035-6.9,6.9,6.9,0,0,0-1.457-4.382,7.136,7.136,0,0,0,.82-.692,7,7,0,0,0,2.1-4.884,6.9,6.9,0,0,0-1.457-4.382,7.1,7.1,0,0,0,.82-.692A7,7,0,0,0,68.751,62.3ZM16,85H4.114V54.044H16Zm47.18-29.873H48.946v4.114H61.618a3.081,3.081,0,0,1,2.184.923,2.847,2.847,0,0,1,.835,2.057,2.936,2.936,0,0,1-2.921,2.864H48.946V69.2h11.2a3.081,3.081,0,0,1,2.184.923,2.847,2.847,0,0,1,.835,2.057,2.936,2.936,0,0,1-2.921,2.864h-11.3v4.114h9.737a3.081,3.081,0,0,1,2.184.923,2.847,2.847,0,0,1,.835,2.057A2.936,2.936,0,0,1,58.781,85h-31.9l-6.761-2.653V56.854h5.6L33.139,50.1a20.264,20.264,0,0,0,6.616-14.96V33.172a3.081,3.081,0,0,1,.923-2.184,2.85,2.85,0,0,1,2-.836h.053A2.936,2.936,0,0,1,45.6,33.073v16.21H63.085a3.081,3.081,0,0,1,2.184.923,2.847,2.847,0,0,1,.835,2.057A2.936,2.936,0,0,1,63.183,55.127Z" transform="translate(0 -26.037)" fill="#3c3c3b"/>
        </g>
      </g>
      <g id="组_1324" data-name="组 1324" transform="translate(7.792 77.811)">
        <g id="组_1323" data-name="组 1323">
          <circle id="椭圆_16" data-name="椭圆 16" cx="2.057" cy="2.057" r="2.057" fill="#3c3c3b"/>
        </g>
      </g>
    </g>
    <g id="联合_5" data-name="联合 5" transform="translate(-13520.382 -5544.774)" fill="none">
      <path d="M13713,5677a12,12,0,1,1,12,12A12,12,0,0,1,13713,5677Zm-35,0a12,12,0,1,1,12,12A12,12,0,0,1,13678,5677Zm-34,0a12,12,0,1,1,12,12A12,12,0,0,1,13644,5677Z" stroke="none"/>
      <path d="M 13656.0009765625 5669.0009765625 C 13651.5888671875 5669.0009765625 13648 5672.5888671875 13648 5676.99853515625 C 13648 5681.41015625 13651.5888671875 5684.9990234375 13656.0009765625 5684.9990234375 C 13660.4111328125 5684.9990234375 13663.9990234375 5681.41015625 13663.9990234375 5676.99853515625 C 13663.9990234375 5672.5888671875 13660.4111328125 5669.0009765625 13656.0009765625 5669.0009765625 M 13690.0009765625 5669.0009765625 C 13685.5888671875 5669.0009765625 13682 5672.5888671875 13682 5676.99853515625 C 13682 5681.41015625 13685.5888671875 5684.9990234375 13690.0009765625 5684.9990234375 C 13694.4130859375 5684.9990234375 13698.001953125 5681.41015625 13698.001953125 5676.99853515625 C 13698.001953125 5672.5888671875 13694.4130859375 5669.0009765625 13690.0009765625 5669.0009765625 M 13725 5669.0009765625 C 13720.587890625 5669.0009765625 13716.9990234375 5672.5888671875 13716.9990234375 5676.99853515625 C 13716.9990234375 5681.41015625 13720.587890625 5684.9990234375 13725 5684.9990234375 C 13729.412109375 5684.9990234375 13733.0009765625 5681.41015625 13733.0009765625 5676.99853515625 C 13733.0009765625 5672.5888671875 13729.412109375 5669.0009765625 13725 5669.0009765625 M 13656.0009765625 5665.0009765625 C 13662.626953125 5665.0009765625 13667.9990234375 5670.3720703125 13667.9990234375 5676.99853515625 C 13667.9990234375 5683.6279296875 13662.626953125 5688.9990234375 13656.0009765625 5688.9990234375 C 13649.37109375 5688.9990234375 13644 5683.6279296875 13644 5676.99853515625 C 13644 5670.3720703125 13649.37109375 5665.0009765625 13656.0009765625 5665.0009765625 Z M 13690.0009765625 5665.0009765625 C 13696.626953125 5665.0009765625 13702.001953125 5670.3720703125 13702.001953125 5676.99853515625 C 13702.001953125 5683.6279296875 13696.626953125 5688.9990234375 13690.0009765625 5688.9990234375 C 13683.375 5688.9990234375 13678 5683.6279296875 13678 5676.99853515625 C 13678 5670.3720703125 13683.375 5665.0009765625 13690.0009765625 5665.0009765625 Z M 13725 5665.0009765625 C 13731.6259765625 5665.0009765625 13737.0009765625 5670.3720703125 13737.0009765625 5676.99853515625 C 13737.0009765625 5683.6279296875 13731.6259765625 5688.9990234375 13725 5688.9990234375 C 13718.3740234375 5688.9990234375 13712.9990234375 5683.6279296875 13712.9990234375 5676.99853515625 C 13712.9990234375 5670.3720703125 13718.3740234375 5665.0009765625 13725 5665.0009765625 Z" stroke="none" fill="#3c3c3b"/>
    </g>
  </g>
</svg>
