<svg xmlns="http://www.w3.org/2000/svg" width="218.905" height="238.436" viewBox="0 0 218.905 238.436">
  <path id="online-voting" d="M239.873,56.369V75.452a51.832,51.832,0,0,1-51.7,51.7H149.509v7.841a20.876,20.876,0,0,1,20.959,4.161,20.9,20.9,0,0,1,27.962,0,20.832,20.832,0,0,1,28.71.756,21.318,21.318,0,0,1,6.21,14.737c.437,25.4.656,51.335.44,76.734a6.959,6.959,0,0,1-13.918-.109c.217-25.4,0-50.9-.44-76.407-.158-9.136-13.256-9.35-13.992-.7v5.317a6.986,6.986,0,1,1-13.973,0v-4.73h-.025c0-8.8-13-9.363-13.947-.759v5.488a6.986,6.986,0,1,1-13.973,0v-4.73h-.042c0-8.8-13-9.358-13.965-.787v5.517a6.986,6.986,0,1,1-13.973,0l-.008-57.708a6.995,6.995,0,0,0-13.989,0l-.01,45.078.015,29.826a6.985,6.985,0,0,1-11.9,5.548L96.091,168.665c-4.1-4.1-11.5-1.576-11.5,4.006a12.744,12.744,0,0,0,2.441,6.912c13.818,20.343,20.158,29.531,32.027,48.156a6.957,6.957,0,0,1-11.735,7.478c-10.943-17.173-19.556-29.791-31.808-47.829-6.055-8.914-7.274-20.51.819-28.6a21,21,0,0,1,29.64,0l1.656,1.656-.024-33.291H72.667a51.832,51.832,0,0,1-51.7-51.7V51.7A51.832,51.832,0,0,1,72.667,0H188.173c32.446,0,51.7,25.51,51.7,56.369ZM116.34,25.85A14.385,14.385,0,0,0,101.98,40.21V63.163A14.385,14.385,0,0,0,116.34,77.523h5.279A14.385,14.385,0,0,0,135.98,63.163V40.21A14.385,14.385,0,0,0,121.619,25.85H116.34Zm5.279,13.973H116.34a.41.41,0,0,0-.388.388V63.163a.41.41,0,0,0,.388.388h5.279a.409.409,0,0,0,.388-.388V40.21a.409.409,0,0,0-.388-.388Zm-65.1-4.83L68.76,72.708a6.978,6.978,0,0,0,13.348-.283L94.584,35.106a6.964,6.964,0,1,0-13.209-4.421l-5.882,17.6-5.713-17.6a6.973,6.973,0,1,0-13.263,4.312Zm93.436,4.843h2.329V70.561a6.986,6.986,0,0,0,13.973,0V39.835h2.329a6.986,6.986,0,0,0,0-13.973h-18.63a6.986,6.986,0,0,0,0,13.973Zm47.507,4.877v-4.89a6.987,6.987,0,1,0,.133-13.973h-7.119a6.986,6.986,0,0,0-6.986,6.986V70.561a6.986,6.986,0,0,0,6.986,6.986h7.22a6.988,6.988,0,1,0-.234-13.973V58.685a6.988,6.988,0,1,0,0-13.973Zm-47.95,68.466h38.665A37.882,37.882,0,0,0,223.05,89.787a51.494,51.494,0,0,1-34.876,13.61H149.509v9.781Zm-4.043-23.753h42.708a37.726,37.726,0,1,0,0-75.452H72.667a37.726,37.726,0,0,0,0,75.452h38.95a20.945,20.945,0,0,1,33.849,0ZM107.574,103.4H72.667a51.494,51.494,0,0,1-34.876-13.61,37.883,37.883,0,0,0,34.876,23.391h34.909C107.575,110.885,107.574,107.751,107.574,103.4Z" transform="translate(-20.968)" fill="#f8f6e7" fill-rule="evenodd"/>
</svg>
