<svg id="组_892" data-name="组 892" xmlns="http://www.w3.org/2000/svg" width="16" height="15.221" viewBox="0 0 16 15.221">
  <path id="路径_5621" data-name="路径 5621" d="M14.643,139.088a4.511,4.511,0,0,0-6.31,0L.98,146.442a3.445,3.445,0,0,0,4.871,4.872l6.658-6.658a2.216,2.216,0,1,0-3.135-3.135l-6.369,6.369a.579.579,0,0,0,.819.819l6.369-6.369a1.059,1.059,0,0,1,1.5,1.5l-6.658,6.658A2.287,2.287,0,0,1,1.8,147.261l7.353-7.353a3.354,3.354,0,0,1,4.745,4.743L6.544,152a.579.579,0,1,0,.816.816l7.353-7.353A4.511,4.511,0,0,0,14.643,139.088Z" transform="translate(0 -137.801)" fill="#3984ee"/>
</svg>
